<?xml version="1.0" encoding="utf-8"?>
<!-- Generator: Adobe Illustrator 16.0.0, SVG Export Plug-In . SVG Version: 6.00 Build 0)  -->
<!DOCTYPE svg PUBLIC "-//W3C//DTD SVG 1.1//EN" "http://www.w3.org/Graphics/SVG/1.1/DTD/svg11.dtd">
<svg version="1.1" id="Layer_1" xmlns="http://www.w3.org/2000/svg" xmlns:xlink="http://www.w3.org/1999/xlink" x="0px" y="0px"
	 width="1022.533px" height="389.675px" viewBox="0 0 1022.533 389.675" enable-background="new 0 0 1022.533 389.675"
	 xml:space="preserve">
<g>
	<g>
		<path fill="#FFB700" d="M0.04,17.12c0-1.974,0.84-3.627,2.52-4.96c1.681-1.334,3.953-2,6.82-2c2.866,0,5.18,0.653,6.939,1.96
			c1.761,1.307,2.693,3.094,2.801,5.359h-7c-0.08-0.772-0.348-1.3-0.801-1.58c-0.453-0.279-1.133-0.42-2.039-0.42
			c-1.787,0-2.681,0.547-2.681,1.641c0,0.986,1.094,1.666,3.28,2.04c2.213,0.373,4.227,0.946,6.04,1.72
			c0.933,0.374,1.713,0.993,2.34,1.859c0.626,0.867,0.94,1.928,0.94,3.181c0,2.08-0.895,3.78-2.681,5.1
			C14.733,32.34,12.479,33,9.76,33s-4.987-0.62-6.8-1.86c-1.813-1.24-2.8-3.073-2.96-5.5h7c0.187,1.36,1.146,2.04,2.88,2.04
			c0.8,0,1.46-0.187,1.979-0.56c0.521-0.373,0.78-0.854,0.78-1.44c0-0.586-0.434-1.053-1.3-1.4c-0.867-0.346-1.914-0.64-3.14-0.88
			c-1.228-0.239-2.46-0.54-3.7-0.899c-1.24-0.36-2.294-0.986-3.16-1.88C0.473,19.727,0.04,18.56,0.04,17.12z"/>
		<path fill="#FFB700" d="M25.147,29.84c-2.254-2.106-3.38-4.88-3.38-8.32c0-3.439,1.12-6.193,3.359-8.26
			c2.24-2.066,5.014-3.1,8.32-3.1s6.073,1.033,8.3,3.1s3.341,4.82,3.341,8.26c0,3.44-1.107,6.214-3.32,8.32
			c-2.214,2.106-4.974,3.16-8.28,3.16S27.4,31.946,25.147,29.84z M36.768,25.72c0.906-0.96,1.359-2.347,1.359-4.16
			c0-1.812-0.467-3.193-1.399-4.14c-0.934-0.946-2.04-1.42-3.32-1.42s-2.38,0.474-3.3,1.42s-1.38,2.327-1.38,4.14
			c0,1.813,0.473,3.2,1.42,4.16c0.946,0.96,2.06,1.44,3.34,1.44S35.86,26.68,36.768,25.72z"/>
		<path fill="#FFB700" d="M55.863,10.399v3.28c1.413-2.347,3.667-3.52,6.761-3.52c1.652,0,3.126,0.373,4.42,1.119
			c1.293,0.747,2.3,1.814,3.02,3.2c0.826-1.306,1.9-2.353,3.22-3.14c1.32-0.786,2.794-1.18,4.421-1.18c2.72,0,4.88,0.84,6.479,2.52
			s2.4,4.014,2.4,7v13.04h-6.801V20.6c0-1.439-0.38-2.553-1.14-3.34c-0.76-0.786-1.807-1.18-3.14-1.18
			c-1.334,0-2.38,0.394-3.141,1.18c-0.76,0.787-1.14,1.9-1.14,3.34v12.12h-6.8V20.6c0-1.439-0.38-2.553-1.141-3.34
			c-0.76-0.786-1.807-1.18-3.14-1.18c-1.334,0-2.38,0.394-3.14,1.18c-0.76,0.787-1.141,1.9-1.141,3.34v12.12h-6.84v-22.32H55.863z"
			/>
		<path fill="#FFB700" d="M93.591,29.84c-2.253-2.106-3.38-4.88-3.38-8.32c0-3.439,1.12-6.193,3.36-8.26s5.013-3.1,8.32-3.1
			c3.306,0,6.073,1.033,8.3,3.1s3.34,4.82,3.34,8.26c0,3.44-1.106,6.214-3.32,8.32S105.237,33,101.932,33
			C98.624,33,95.845,31.946,93.591,29.84z M105.211,25.72c0.906-0.96,1.36-2.347,1.36-4.16c0-1.812-0.467-3.193-1.4-4.14
			s-2.04-1.42-3.319-1.42c-1.28,0-2.38,0.474-3.3,1.42c-0.921,0.946-1.381,2.327-1.381,4.14c0,1.813,0.474,3.2,1.42,4.16
			s2.061,1.44,3.341,1.44C103.211,27.16,104.305,26.68,105.211,25.72z"/>
		<path fill="#FFB700" d="M116.06,17.12c0-1.974,0.84-3.627,2.521-4.96c1.68-1.334,3.953-2,6.819-2s5.181,0.653,6.94,1.96
			s2.693,3.094,2.8,5.359h-7c-0.08-0.772-0.347-1.3-0.8-1.58c-0.454-0.279-1.134-0.42-2.04-0.42c-1.787,0-2.68,0.547-2.68,1.641
			c0,0.986,1.093,1.666,3.279,2.04c2.214,0.373,4.227,0.946,6.04,1.72c0.934,0.374,1.714,0.993,2.341,1.859
			c0.626,0.867,0.939,1.928,0.939,3.181c0,2.08-0.894,3.78-2.68,5.1c-1.787,1.32-4.04,1.98-6.76,1.98
			c-2.721,0-4.987-0.62-6.801-1.86s-2.8-3.073-2.96-5.5h7c0.187,1.36,1.146,2.04,2.88,2.04c0.801,0,1.46-0.187,1.98-0.56
			c0.52-0.373,0.78-0.854,0.78-1.44c0-0.586-0.434-1.053-1.301-1.4c-0.866-0.346-1.913-0.64-3.14-0.88
			c-1.227-0.239-2.46-0.54-3.7-0.899c-1.239-0.36-2.293-0.986-3.16-1.88C116.493,19.727,116.06,18.56,116.06,17.12z"/>
		<path fill="#004876" d="M153.099,29.8c-1.974-2.133-2.96-4.866-2.96-8.2c0-3.333,0.986-6.073,2.96-8.22s4.381-3.22,7.221-3.22
			s5.02,1.054,6.54,3.159v-2.92h6.84v22.32h-6.84v-3.24c-1.654,2.347-3.867,3.521-6.641,3.521S155.072,31.934,153.099,29.8z
			 M165.379,25.64c0.986-0.96,1.48-2.32,1.48-4.08s-0.494-3.113-1.48-4.06s-2.12-1.42-3.399-1.42c-1.28,0-2.414,0.479-3.4,1.439
			c-0.987,0.96-1.48,2.32-1.48,4.08s0.493,3.114,1.48,4.061c0.986,0.946,2.12,1.42,3.4,1.42
			C163.259,27.08,164.393,26.6,165.379,25.64z"/>
		<path fill="#004876" d="M185.843,10.399v4.16c1.6-2.933,3.733-4.399,6.4-4.399v6.96h-1.681c-1.573,0-2.754,0.373-3.54,1.119
			c-0.787,0.747-1.18,2.055-1.18,3.921v10.56h-6.84v-22.32H185.843z"/>
		<path fill="#004876" d="M202.211,10.399v4.16c1.6-2.933,3.733-4.399,6.4-4.399v6.96h-1.681c-1.573,0-2.754,0.373-3.54,1.119
			c-0.787,0.747-1.18,2.055-1.18,3.921v10.56h-6.84v-22.32H202.211z"/>
		<path fill="#004876" d="M221.671,33c-3.254,0-5.92-1.047-8-3.141c-2.08-2.093-3.12-4.873-3.12-8.34c0-3.466,1.033-6.226,3.1-8.28
			c2.066-2.053,4.74-3.079,8.021-3.079c3.279,0,6,1.014,8.16,3.04c2.159,2.026,3.239,4.84,3.239,8.439
			c0,0.773-0.054,1.494-0.159,2.16h-15.36c0.133,0.986,0.573,1.794,1.32,2.42c0.746,0.627,1.553,0.94,2.42,0.94
			c0.866,0,1.513-0.087,1.939-0.261c0.427-0.173,0.74-0.346,0.94-0.52c0.2-0.173,0.46-0.46,0.779-0.86h7.4
			c-0.64,2.24-1.92,4.047-3.84,5.42C226.591,32.313,224.311,33,221.671,33z M224.591,16.979c-0.8-0.653-1.747-0.979-2.84-0.979
			c-1.094,0-2.014,0.326-2.761,0.979c-0.746,0.654-1.213,1.5-1.399,2.54h8.359C225.844,18.479,225.391,17.634,224.591,16.979z"/>
		<path fill="#004876" d="M243.773,10.399v3.28c1.413-2.347,3.667-3.52,6.761-3.52c2.56,0,4.633,0.854,6.22,2.56
			c1.586,1.707,2.38,4.027,2.38,6.96v13.04h-6.8V20.6c0-1.439-0.38-2.553-1.141-3.34c-0.76-0.786-1.807-1.18-3.14-1.18
			c-1.334,0-2.38,0.394-3.14,1.18c-0.76,0.787-1.141,1.9-1.141,3.34v12.12h-6.84v-22.32H243.773z"/>
		<path fill="#004876" d="M265.786,29.8c-1.974-2.133-2.96-4.866-2.96-8.2c0-3.333,0.986-6.073,2.96-8.22
			c1.973-2.146,4.38-3.22,7.22-3.22s5.021,1.054,6.54,3.159V3.12h6.84v29.6h-6.84v-3.24c-1.653,2.347-3.867,3.521-6.64,3.521
			C270.132,33,267.759,31.934,265.786,29.8z M278.066,25.64c0.986-0.96,1.479-2.32,1.479-4.08s-0.493-3.113-1.479-4.06
			c-0.987-0.946-2.12-1.42-3.4-1.42s-2.414,0.479-3.4,1.439s-1.479,2.32-1.479,4.08s0.493,3.114,1.479,4.061s2.12,1.42,3.4,1.42
			S277.079,26.6,278.066,25.64z"/>
		<path fill="#004876" d="M293.262,29.8c-1.974-2.133-2.96-4.866-2.96-8.2c0-3.333,0.986-6.073,2.96-8.22s4.381-3.22,7.221-3.22
			s5.02,1.054,6.54,3.159v-2.92h6.84v22.32h-6.84v-3.24c-1.654,2.347-3.867,3.521-6.641,3.521S295.235,31.934,293.262,29.8z
			 M305.542,25.64c0.986-0.96,1.48-2.32,1.48-4.08s-0.494-3.113-1.48-4.06s-2.12-1.42-3.399-1.42c-1.28,0-2.414,0.479-3.4,1.439
			c-0.987,0.96-1.48,2.32-1.48,4.08s0.493,3.114,1.48,4.061c0.986,0.946,2.12,1.42,3.4,1.42
			C303.422,27.08,304.556,26.6,305.542,25.64z"/>
		<path fill="#004876" d="M320.737,29.8c-1.974-2.133-2.96-4.866-2.96-8.2c0-3.333,0.986-6.073,2.96-8.22s4.381-3.22,7.221-3.22
			s5.02,1.054,6.54,3.159V3.12h6.84v29.6h-6.84v-3.24c-1.654,2.347-3.867,3.521-6.641,3.521S322.711,31.934,320.737,29.8z
			 M333.018,25.64c0.986-0.96,1.48-2.32,1.48-4.08s-0.494-3.113-1.48-4.06s-2.12-1.42-3.399-1.42c-1.28,0-2.414,0.479-3.4,1.439
			c-0.987,0.96-1.48,2.32-1.48,4.08s0.493,3.114,1.48,4.061c0.986,0.946,2.12,1.42,3.4,1.42
			C330.897,27.08,332.031,26.6,333.018,25.64z"/>
		<path fill="#004876" d="M348.581,29.84c-2.253-2.106-3.38-4.88-3.38-8.32c0-3.439,1.12-6.193,3.36-8.26s5.013-3.1,8.32-3.1
			c3.306,0,6.073,1.033,8.3,3.1s3.34,4.82,3.34,8.26c0,3.44-1.106,6.214-3.32,8.32S360.228,33,356.922,33
			C353.614,33,350.835,31.946,348.581,29.84z M360.201,25.72c0.906-0.96,1.36-2.347,1.36-4.16c0-1.812-0.467-3.193-1.4-4.14
			s-2.04-1.42-3.319-1.42c-1.28,0-2.38,0.474-3.3,1.42c-0.921,0.946-1.381,2.327-1.381,4.14c0,1.813,0.474,3.2,1.42,4.16
			s2.061,1.44,3.341,1.44C358.201,27.16,359.295,26.68,360.201,25.72z"/>
		<path fill="#004876" d="M379.298,10.399v4.16c1.6-2.933,3.733-4.399,6.4-4.399v6.96h-1.681c-1.573,0-2.754,0.373-3.54,1.119
			c-0.787,0.747-1.18,2.055-1.18,3.921v10.56h-6.84v-22.32H379.298z"/>
		<path fill="#004876" d="M390.573,29.8c-1.974-2.133-2.96-4.866-2.96-8.2c0-3.333,0.986-6.073,2.96-8.22s4.381-3.22,7.221-3.22
			s5.02,1.054,6.54,3.159v-2.92h6.84v22.32h-6.84v-3.24C402.68,31.826,400.467,33,397.693,33S392.547,31.934,390.573,29.8z
			 M402.854,25.64c0.986-0.96,1.48-2.32,1.48-4.08s-0.494-3.113-1.48-4.06s-2.12-1.42-3.399-1.42c-1.28,0-2.414,0.479-3.4,1.439
			c-0.987,0.96-1.48,2.32-1.48,4.08s0.493,3.114,1.48,4.061c0.986,0.946,2.12,1.42,3.4,1.42
			C400.733,27.08,401.867,26.6,402.854,25.64z"/>
		<path fill="#004876" d="M436.013,13.319c1.521-2.105,3.7-3.159,6.54-3.159c2.841,0,5.247,1.073,7.221,3.22
			c1.973,2.146,2.96,4.887,2.96,8.22c0,3.334-0.987,6.067-2.96,8.2c-1.974,2.134-4.36,3.2-7.16,3.2s-5-1.174-6.601-3.521v3.24h-6.84
			V3.12h6.84V13.319z M444.293,25.66c0.986-0.946,1.48-2.301,1.48-4.061s-0.494-3.12-1.48-4.08s-2.12-1.439-3.399-1.439
			c-1.28,0-2.414,0.474-3.4,1.42c-0.987,0.946-1.48,2.3-1.48,4.06s0.493,3.12,1.48,4.08c0.986,0.96,2.12,1.44,3.4,1.44
			C442.173,27.08,443.307,26.606,444.293,25.66z"/>
		<path fill="#004876" d="M458.585,29.84c-2.253-2.106-3.38-4.88-3.38-8.32c0-3.439,1.12-6.193,3.36-8.26s5.013-3.1,8.32-3.1
			c3.306,0,6.073,1.033,8.3,3.1s3.34,4.82,3.34,8.26c0,3.44-1.106,6.214-3.32,8.32S470.231,33,466.926,33
			C463.618,33,460.839,31.946,458.585,29.84z M470.205,25.72c0.906-0.96,1.36-2.347,1.36-4.16c0-1.812-0.467-3.193-1.4-4.14
			s-2.04-1.42-3.319-1.42c-1.28,0-2.38,0.474-3.3,1.42c-0.921,0.946-1.381,2.327-1.381,4.14c0,1.813,0.474,3.2,1.42,4.16
			s2.061,1.44,3.341,1.44C468.205,27.16,469.299,26.68,470.205,25.72z"/>
		<path fill="#004876" d="M497.493,10.399h6.84v22.32h-6.84v-3.28c-1.414,2.347-3.667,3.521-6.76,3.521
			c-2.561,0-4.634-0.854-6.22-2.561c-1.587-1.706-2.381-4.026-2.381-6.96v-13.04h6.801v12.12c0,1.44,0.38,2.554,1.14,3.34
			c0.76,0.787,1.807,1.181,3.14,1.181s2.38-0.394,3.141-1.181c0.76-0.786,1.14-1.899,1.14-3.34V10.399z"/>
		<path fill="#004876" d="M519.31,26.92h2.439v5.8h-3.479c-2.507,0-4.447-0.553-5.82-1.66c-1.374-1.106-2.06-3.006-2.06-5.7V16.08
			h-2.08v-5.681h2.08V4.96h6.84v5.439h4.479v5.681h-4.479v9.279C517.229,26.399,517.923,26.92,519.31,26.92z"/>
		<path fill="#004876" d="M532.241,7.88c-0.774,0.773-1.721,1.16-2.841,1.16s-2.066-0.387-2.84-1.16s-1.16-1.727-1.16-2.86
			c0-1.133,0.387-2.086,1.16-2.859S528.28,1,529.4,1s2.066,0.387,2.841,1.16c0.772,0.773,1.159,1.727,1.159,2.859
			C533.4,6.153,533.014,7.106,532.241,7.88z M526.001,32.72v-22.32h6.84v22.32H526.001z"/>
		<path fill="#004876" d="M539.625,29.8c-1.974-2.133-2.96-4.866-2.96-8.2c0-3.333,0.986-6.073,2.96-8.22
			c1.973-2.146,4.38-3.22,7.22-3.22s5.021,1.054,6.54,3.159v-2.92h6.84v32.96h-6.84v-13.88c-1.653,2.347-3.867,3.521-6.64,3.521
			C543.971,33,541.598,31.934,539.625,29.8z M551.905,25.64c0.986-0.96,1.479-2.32,1.479-4.08s-0.493-3.113-1.479-4.06
			c-0.987-0.946-2.12-1.42-3.4-1.42s-2.414,0.479-3.4,1.439s-1.479,2.32-1.479,4.08s0.493,3.114,1.479,4.061s2.12,1.42,3.4,1.42
			S550.918,26.6,551.905,25.64z"/>
		<path fill="#004876" d="M580.717,10.399h6.84v22.32h-6.84v-3.28c-1.414,2.347-3.667,3.521-6.76,3.521
			c-2.561,0-4.634-0.854-6.22-2.561c-1.587-1.706-2.381-4.026-2.381-6.96v-13.04h6.801v12.12c0,1.44,0.38,2.554,1.14,3.34
			c0.76,0.787,1.807,1.181,3.14,1.181s2.38-0.394,3.141-1.181c0.76-0.786,1.14-1.899,1.14-3.34V10.399z"/>
		<path fill="#004876" d="M602.593,33c-3.254,0-5.92-1.047-8-3.141c-2.08-2.093-3.12-4.873-3.12-8.34c0-3.466,1.033-6.226,3.1-8.28
			c2.066-2.053,4.74-3.079,8.021-3.079c3.279,0,6,1.014,8.16,3.04c2.159,2.026,3.239,4.84,3.239,8.439
			c0,0.773-0.054,1.494-0.159,2.16h-15.36c0.133,0.986,0.573,1.794,1.32,2.42c0.746,0.627,1.553,0.94,2.42,0.94
			c0.866,0,1.513-0.087,1.939-0.261c0.427-0.173,0.74-0.346,0.94-0.52c0.2-0.173,0.46-0.46,0.779-0.86h7.4
			c-0.64,2.24-1.92,4.047-3.84,5.42C607.513,32.313,605.232,33,602.593,33z M605.513,16.979c-0.8-0.653-1.747-0.979-2.84-0.979
			c-1.094,0-2.014,0.326-2.761,0.979c-0.746,0.654-1.213,1.5-1.399,2.54h8.359C606.766,18.479,606.312,17.634,605.513,16.979z"/>
		<path fill="#004876" d="M2.88,69.8c-1.974-2.133-2.96-4.866-2.96-8.2c0-3.333,0.986-6.073,2.96-8.22
			c1.973-2.146,4.38-3.22,7.22-3.22s5.021,1.054,6.54,3.159V43.12h6.84v29.6h-6.84v-3.24C14.986,71.826,12.772,73,10,73
			C7.226,73,4.853,71.934,2.88,69.8z M15.16,65.64c0.986-0.96,1.479-2.32,1.479-4.08s-0.493-3.113-1.479-4.06
			c-0.987-0.946-2.12-1.42-3.4-1.42s-2.414,0.479-3.4,1.439S6.88,59.84,6.88,61.6s0.493,3.114,1.479,4.061s2.12,1.42,3.4,1.42
			S14.173,66.6,15.16,65.64z"/>
		<path fill="#004876" d="M38.516,73c-3.254,0-5.92-1.047-8-3.141c-2.08-2.093-3.12-4.873-3.12-8.34c0-3.466,1.033-6.226,3.101-8.28
			c2.066-2.053,4.74-3.079,8.02-3.079c3.28,0,6,1.014,8.16,3.04s3.24,4.84,3.24,8.439c0,0.773-0.054,1.494-0.16,2.16h-15.36
			c0.134,0.986,0.573,1.794,1.32,2.42c0.746,0.627,1.553,0.94,2.42,0.94c0.866,0,1.514-0.087,1.94-0.261
			c0.426-0.173,0.739-0.346,0.939-0.52c0.2-0.173,0.46-0.46,0.78-0.86h7.4c-0.641,2.24-1.92,4.047-3.841,5.42
			C43.436,72.313,41.156,73,38.516,73z M41.436,56.979c-0.8-0.653-1.746-0.979-2.84-0.979s-2.014,0.326-2.76,0.979
			c-0.747,0.654-1.214,1.5-1.4,2.54h8.36C42.689,58.479,42.236,57.634,41.436,56.979z"/>
		<path fill="#004876" d="M67.635,69.8c-1.974-2.133-2.96-4.866-2.96-8.2c0-3.333,0.986-6.073,2.96-8.22
			c1.973-2.146,4.38-3.22,7.22-3.22s5.021,1.054,6.54,3.159v-2.92h6.84v22.32h-6.84v-3.24C79.741,71.826,77.527,73,74.755,73
			C71.98,73,69.607,71.934,67.635,69.8z M79.915,65.64c0.986-0.96,1.479-2.32,1.479-4.08s-0.493-3.113-1.479-4.06
			c-0.987-0.946-2.12-1.42-3.4-1.42s-2.414,0.479-3.4,1.439s-1.479,2.32-1.479,4.08s0.493,3.114,1.479,4.061s2.12,1.42,3.4,1.42
			S78.928,66.6,79.915,65.64z"/>
		<path fill="#004876" d="M108.727,50.399h6.84v22.32h-6.84v-3.28c-1.414,2.347-3.667,3.521-6.76,3.521
			c-2.561,0-4.634-0.854-6.22-2.561c-1.587-1.706-2.381-4.026-2.381-6.96v-13.04h6.801v12.12c0,1.44,0.38,2.554,1.14,3.34
			c0.76,0.787,1.807,1.181,3.14,1.181s2.38-0.394,3.141-1.181c0.76-0.786,1.14-1.899,1.14-3.34V50.399z"/>
		<path fill="#004876" d="M130.542,66.92h2.44v5.8h-3.48c-2.507,0-4.446-0.553-5.819-1.66c-1.374-1.106-2.061-3.006-2.061-5.7V56.08
			h-2.08v-5.681h2.08V44.96h6.84v5.439h4.48v5.681h-4.48v9.279C128.462,66.399,129.155,66.92,130.542,66.92z"/>
		<path fill="#004876" d="M138.878,69.84c-2.254-2.106-3.38-4.88-3.38-8.32c0-3.439,1.12-6.193,3.359-8.26
			c2.24-2.066,5.014-3.1,8.32-3.1s6.073,1.033,8.3,3.1s3.341,4.82,3.341,8.26c0,3.44-1.107,6.214-3.32,8.32
			c-2.214,2.106-4.974,3.16-8.28,3.16S141.131,71.946,138.878,69.84z M150.498,65.72c0.906-0.96,1.359-2.347,1.359-4.16
			c0-1.812-0.467-3.193-1.399-4.14c-0.934-0.946-2.04-1.42-3.32-1.42s-2.38,0.474-3.3,1.42s-1.38,2.327-1.38,4.14
			c0,1.813,0.473,3.2,1.42,4.16c0.946,0.96,2.06,1.44,3.34,1.44S149.591,66.68,150.498,65.72z"/>
		<path fill="#004876" d="M161.346,57.12c0-1.974,0.84-3.627,2.521-4.96c1.68-1.334,3.953-2,6.819-2s5.181,0.653,6.94,1.96
			s2.693,3.094,2.8,5.359h-7c-0.08-0.772-0.347-1.3-0.8-1.58c-0.454-0.279-1.134-0.42-2.04-0.42c-1.787,0-2.68,0.547-2.68,1.641
			c0,0.986,1.093,1.666,3.279,2.04c2.214,0.373,4.227,0.946,6.04,1.72c0.934,0.374,1.714,0.993,2.341,1.859
			c0.626,0.867,0.939,1.928,0.939,3.181c0,2.08-0.894,3.78-2.68,5.1c-1.787,1.32-4.04,1.98-6.76,1.98
			c-2.721,0-4.987-0.62-6.801-1.86s-2.8-3.073-2.96-5.5h7c0.187,1.36,1.146,2.04,2.88,2.04c0.801,0,1.46-0.187,1.98-0.56
			c0.52-0.373,0.78-0.854,0.78-1.44c0-0.586-0.434-1.053-1.301-1.4c-0.866-0.346-1.913-0.64-3.14-0.88
			c-1.227-0.239-2.46-0.54-3.7-0.899c-1.239-0.36-2.293-0.986-3.16-1.88C161.779,59.727,161.346,58.56,161.346,57.12z"/>
		<path fill="#004876" d="M198.525,69.88c-2.067-2.08-3.101-4.854-3.101-8.32c0-3.466,1.033-6.233,3.101-8.3
			c2.066-2.066,4.74-3.1,8.02-3.1c2.721,0,5.026,0.673,6.92,2.02s3.146,3.273,3.761,5.78h-7.4c-0.64-1.333-1.687-2-3.14-2
			c-1.454,0-2.534,0.514-3.24,1.54c-0.707,1.026-1.061,2.38-1.061,4.06s0.354,3.034,1.061,4.061c0.706,1.026,1.74,1.54,3.1,1.54
			c0.854,0,1.521-0.146,2-0.44c0.48-0.293,0.906-0.813,1.28-1.56h7.4c-0.614,2.399-1.881,4.307-3.801,5.72
			c-1.92,1.414-4.213,2.12-6.88,2.12C203.266,73,200.592,71.96,198.525,69.88z"/>
		<path fill="#004876" d="M222.705,69.84c-2.254-2.106-3.38-4.88-3.38-8.32c0-3.439,1.12-6.193,3.359-8.26
			c2.24-2.066,5.014-3.1,8.32-3.1s6.073,1.033,8.3,3.1s3.341,4.82,3.341,8.26c0,3.44-1.107,6.214-3.32,8.32
			c-2.214,2.106-4.974,3.16-8.28,3.16S224.958,71.946,222.705,69.84z M234.325,65.72c0.906-0.96,1.359-2.347,1.359-4.16
			c0-1.812-0.467-3.193-1.399-4.14c-0.934-0.946-2.04-1.42-3.32-1.42s-2.38,0.474-3.3,1.42s-1.38,2.327-1.38,4.14
			c0,1.813,0.473,3.2,1.42,4.16c0.946,0.96,2.06,1.44,3.34,1.44S233.418,66.68,234.325,65.72z"/>
		<path fill="#004876" d="M253.421,50.399v3.28c1.413-2.347,3.666-3.52,6.76-3.52c2.561,0,4.633,0.854,6.22,2.56
			c1.587,1.707,2.381,4.027,2.381,6.96v13.04h-6.801V60.6c0-1.439-0.38-2.553-1.14-3.34c-0.76-0.786-1.807-1.18-3.14-1.18
			c-1.334,0-2.38,0.394-3.141,1.18c-0.76,0.787-1.14,1.9-1.14,3.34v12.12h-6.84v-22.32H253.421z"/>
	</g>
</g>
<g>
	<g>
		<path fill="#004876" d="M18.531,207.604C6.075,195.507-0.152,180.159-0.152,161.564s6.227-33.94,18.684-46.04
			c12.454-12.097,27.683-18.147,45.682-18.147c13.946,0,26.341,3.696,37.189,11.085c10.845,7.393,18.415,17.643,22.706,30.753
			H87.635c-4.769-9.177-12.398-13.767-22.885-13.767c-10.49,0-18.746,3.279-24.763,9.833c-6.021,6.557-9.029,15.318-9.029,26.283
			c0,10.968,3.008,19.729,9.029,26.282c6.017,6.557,14.272,9.834,24.763,9.834c10.487,0,18.117-4.587,22.885-13.767h36.474
			c-4.291,13.113-11.861,23.363-22.706,30.752c-10.848,7.393-23.243,11.086-37.189,11.086
			C46.214,225.752,30.985,219.703,18.531,207.604z"/>
		<path fill="#004876" d="M215.971,224.679l-6.973-21.098h-45.056l-6.973,21.098h-32.541l43.626-125.871h37.188l43.447,125.871
			H215.971z M171.63,180.338h29.68l-14.84-44.699L171.63,180.338z"/>
		<path fill="#004876" d="M354.964,137.605c0,8.465-3.04,16.628-9.118,24.495c-3.219,4.054-8.019,7.361-14.394,9.923
			c-6.377,2.564-13.917,3.845-22.617,3.845h-18.952v48.811H259.31V99.165h49.526c14.541,0,25.863,3.755,33.97,11.264
			C350.91,117.938,354.964,126.998,354.964,137.605z M289.883,152.625h18.952c4.649,0,8.314-1.369,10.996-4.112
			c2.682-2.741,4.023-6.348,4.023-10.817s-1.372-8.135-4.112-10.996c-2.743-2.86-6.378-4.291-10.906-4.291h-18.952V152.625z"/>
		<path fill="#004876" d="M438.601,224.679l-6.973-21.098h-45.057l-6.973,21.098h-32.54l43.625-125.871h37.189l43.446,125.871
			H438.601z M394.26,180.338h29.68l-14.84-44.699L394.26,180.338z"/>
		<path fill="#004876" d="M488.482,207.604c-12.456-12.097-18.684-27.444-18.684-46.039s6.228-33.94,18.684-46.04
			c12.454-12.097,27.683-18.147,45.682-18.147c13.946,0,26.342,3.696,37.189,11.085c10.845,7.393,18.415,17.643,22.706,30.753
			h-36.474c-4.769-9.177-12.398-13.767-22.886-13.767c-10.489,0-18.745,3.279-24.763,9.833c-6.02,6.557-9.028,15.318-9.028,26.283
			c0,10.968,3.009,19.729,9.028,26.282c6.018,6.557,14.273,9.834,24.763,9.834c10.487,0,18.117-4.587,22.886-13.767h36.474
			c-4.291,13.113-11.861,23.363-22.706,30.752c-10.848,7.393-23.243,11.086-37.189,11.086
			C516.165,225.752,500.937,219.703,488.482,207.604z"/>
		<path fill="#004876" d="M609.613,224.679V99.165h30.573v125.514H609.613z"/>
		<path fill="#004876" d="M707.877,99.165c20.025,0,36.474,5.811,49.347,17.433c12.873,11.621,19.31,26.701,19.31,45.234
			c0,18.536-6.437,33.645-19.31,45.325c-12.873,11.683-29.321,17.521-49.347,17.521h-44.161V99.165H707.877z M694.289,201.436
			h13.588c11.681,0,20.857-3.576,27.534-10.728c6.674-7.152,10.013-16.745,10.013-28.786c0-12.038-3.339-21.634-10.013-28.786
			c-6.677-7.151-15.854-10.728-27.534-10.728h-13.588V201.436z"/>
		<path fill="#004876" d="M866.377,224.679l-6.973-21.098h-45.057l-6.973,21.098h-32.54L818.46,98.808h37.189l43.446,125.871
			H866.377z M822.036,180.338h29.68l-14.84-44.699L822.036,180.338z"/>
		<path fill="#004876" d="M953.877,99.165c20.025,0,36.474,5.811,49.347,17.433c12.873,11.621,19.31,26.701,19.31,45.234
			c0,18.536-6.437,33.645-19.31,45.325c-12.873,11.683-29.321,17.521-49.347,17.521h-44.161V99.165H953.877z M940.289,201.436
			h13.588c11.681,0,20.857-3.576,27.534-10.728c6.674-7.152,10.013-16.745,10.013-28.786c0-12.038-3.339-21.634-10.013-28.786
			c-6.677-7.151-15.854-10.728-27.534-10.728h-13.588V201.436z"/>
		<path fill="#004876" d="M7.178,381.468V255.954h30.574v125.514H7.178z"/>
		<path fill="#004876" d="M61.281,255.954h30.574v102.271h38.083v23.243H61.281V255.954z"/>
		<path fill="#004876" d="M141.432,381.468V255.954h30.573v125.514H141.432z"/>
		<path fill="#004876" d="M337.674,255.954v125.514h-30.573v-70.803l-29.144,70.803h-22.706l-29.144-70.803v70.803h-30.573V255.954
			h35.043l36.116,86.536l35.938-86.536H337.674z"/>
		<path fill="#004876" d="M361.291,381.468V255.954h30.573v125.514H361.291z"/>
		<path fill="#004876" d="M403.825,279.197v-23.243h99.051v23.243h-34.328v102.271h-30.573V279.197H403.825z"/>
		<path fill="#004876" d="M583.188,381.468l-6.973-21.098h-45.056l-6.973,21.098h-32.54l43.625-125.871h37.188l43.447,125.871
			H583.188z M538.848,337.127h29.679l-14.839-44.699L538.848,337.127z"/>
		<path fill="#004876" d="M670.688,255.954c20.024,0,36.474,5.811,49.347,17.433c12.873,11.621,19.31,26.701,19.31,45.234
			c0,18.536-6.437,33.645-19.31,45.325c-12.873,11.683-29.322,17.521-49.347,17.521h-44.162V255.954H670.688z M657.1,358.225h13.589
			c11.68,0,20.857-3.576,27.534-10.728c6.674-7.152,10.012-16.745,10.012-28.786c0-12.038-3.338-21.634-10.012-28.786
			c-6.677-7.151-15.854-10.728-27.534-10.728H657.1V358.225z"/>
		<path fill="#004876" d="M829.188,381.468l-6.973-21.098h-45.057l-6.973,21.098h-32.54l43.625-125.871h37.189l43.446,125.871
			H829.188z M784.847,337.127h29.68l-14.84-44.699L784.847,337.127z"/>
	</g>
</g>
</svg>
