<?xml version="1.0" encoding="utf-8"?>
<!-- Generator: Adobe Illustrator 16.0.0, SVG Export Plug-In . SVG Version: 6.00 Build 0)  -->
<!DOCTYPE svg PUBLIC "-//W3C//DTD SVG 1.1//EN" "http://www.w3.org/Graphics/SVG/1.1/DTD/svg11.dtd">
<svg version="1.1" id="Layer_1" xmlns="http://www.w3.org/2000/svg" xmlns:xlink="http://www.w3.org/1999/xlink" x="0px" y="0px"
	 width="436.151px" height="200.656px" viewBox="0 0 436.151 200.656" enable-background="new 0 0 436.151 200.656"
	 xml:space="preserve">
<g>
	<path fill="#FFB700" d="M125.533,157.736c-1.974-2.133-2.96-4.866-2.96-8.2c0-3.333,0.986-6.073,2.96-8.22
		c1.973-2.146,4.38-3.22,7.22-3.22s5.02,1.054,6.54,3.159v-2.92h6.84v22.32h-6.84v-3.24c-1.654,2.347-3.867,3.521-6.64,3.521
		C129.879,160.937,127.506,159.87,125.533,157.736z M137.813,153.576c0.986-0.96,1.48-2.32,1.48-4.08s-0.494-3.113-1.48-4.06
		c-0.987-0.946-2.12-1.42-3.4-1.42c-1.28,0-2.414,0.479-3.4,1.439c-0.987,0.96-1.48,2.32-1.48,4.08s0.493,3.114,1.48,4.061
		c0.986,0.946,2.12,1.42,3.4,1.42C135.693,155.017,136.826,154.536,137.813,153.576z"/>
	<path fill="#FFB700" d="M166.625,138.336h6.84v22.32h-6.84v-3.28c-1.414,2.347-3.667,3.521-6.76,3.521
		c-2.56,0-4.634-0.854-6.22-2.561c-1.587-1.706-2.38-4.026-2.38-6.96v-13.04h6.8v12.12c0,1.44,0.38,2.554,1.14,3.34
		c0.76,0.787,1.806,1.181,3.14,1.181c1.333,0,2.38-0.394,3.14-1.181c0.76-0.786,1.14-1.899,1.14-3.34V138.336z"/>
	<path fill="#FFB700" d="M188.441,154.856h2.44v5.8h-3.48c-2.507,0-4.447-0.553-5.82-1.66c-1.374-1.106-2.06-3.006-2.06-5.7v-9.279
		h-2.08v-5.681h2.08v-5.439h6.84v5.439h4.48v5.681h-4.48v9.279C186.361,154.336,187.054,154.856,188.441,154.856z"/>
	<path fill="#FFB700" d="M196.776,157.776c-2.253-2.106-3.38-4.88-3.38-8.32c0-3.439,1.12-6.193,3.36-8.26
		c2.24-2.066,5.013-3.1,8.32-3.1c3.306,0,6.073,1.033,8.3,3.1s3.34,4.82,3.34,8.26c0,3.44-1.107,6.214-3.32,8.32
		c-2.214,2.106-4.974,3.16-8.28,3.16C201.81,160.937,199.03,159.883,196.776,157.776z M208.396,153.656
		c0.906-0.96,1.36-2.347,1.36-4.16c0-1.812-0.467-3.193-1.4-4.14c-0.934-0.946-2.04-1.42-3.32-1.42c-1.28,0-2.38,0.474-3.3,1.42
		c-0.92,0.946-1.38,2.327-1.38,4.14c0,1.813,0.473,3.2,1.42,4.16c0.946,0.96,2.06,1.44,3.34,1.44
		C206.396,155.097,207.49,154.616,208.396,153.656z"/>
	<path fill="#FFB700" d="M219.244,145.057c0-1.974,0.84-3.627,2.521-4.96c1.681-1.334,3.953-2,6.819-2
		c2.867,0,5.181,0.653,6.94,1.96c1.761,1.307,2.693,3.094,2.8,5.359h-7c-0.08-0.772-0.347-1.3-0.8-1.58
		c-0.454-0.279-1.134-0.42-2.04-0.42c-1.787,0-2.68,0.547-2.68,1.641c0,0.986,1.094,1.666,3.279,2.04
		c2.214,0.373,4.227,0.946,6.041,1.72c0.933,0.374,1.713,0.993,2.34,1.859c0.626,0.867,0.939,1.928,0.939,3.181
		c0,2.08-0.894,3.78-2.68,5.1c-1.787,1.32-4.04,1.98-6.76,1.98c-2.721,0-4.987-0.62-6.801-1.86c-1.812-1.24-2.799-3.073-2.959-5.5h7
		c0.186,1.36,1.146,2.04,2.879,2.04c0.801,0,1.461-0.187,1.98-0.56s0.78-0.854,0.78-1.44c0-0.586-0.434-1.053-1.3-1.4
		c-0.867-0.346-1.914-0.64-3.141-0.88c-1.227-0.239-2.459-0.54-3.699-0.899c-1.24-0.36-2.294-0.986-3.16-1.88
		C219.678,147.663,219.244,146.496,219.244,145.057z"/>
	<path fill="#FFB700" d="M264.443,160.937c-3.254,0-5.92-1.047-8-3.141c-2.08-2.093-3.119-4.873-3.119-8.34
		c0-3.466,1.033-6.226,3.1-8.28c2.066-2.053,4.74-3.079,8.02-3.079c3.28,0,6,1.014,8.16,3.04s3.24,4.84,3.24,8.439
		c0,0.773-0.054,1.494-0.16,2.16h-15.359c0.133,0.986,0.572,1.794,1.32,2.42c0.746,0.627,1.553,0.94,2.42,0.94
		c0.865,0,1.513-0.087,1.939-0.261c0.426-0.173,0.74-0.346,0.939-0.52c0.201-0.173,0.461-0.46,0.78-0.86h7.4
		c-0.64,2.24-1.92,4.047-3.841,5.42C269.363,160.25,267.084,160.937,264.443,160.937z M267.363,144.916
		c-0.799-0.653-1.746-0.979-2.84-0.979s-2.014,0.326-2.76,0.979c-0.746,0.654-1.213,1.5-1.4,2.54h8.36
		C268.617,146.416,268.164,145.57,267.363,144.916z"/>
	<path fill="#FFB700" d="M286.547,138.336v3.28c1.413-2.347,3.666-3.52,6.76-3.52c2.561,0,4.633,0.854,6.221,2.56
		c1.586,1.707,2.38,4.027,2.38,6.96v13.04h-6.8v-12.12c0-1.439-0.381-2.553-1.141-3.34c-0.76-0.786-1.807-1.18-3.14-1.18
		c-1.334,0-2.38,0.394-3.14,1.18c-0.76,0.787-1.141,1.9-1.141,3.34v12.12h-6.84v-22.32H286.547z"/>
	<path fill="#FFB700" d="M125.533,197.736c-1.974-2.133-2.96-4.866-2.96-8.2c0-3.333,0.986-6.073,2.96-8.22
		c1.973-2.146,4.38-3.22,7.22-3.22s5.02,1.054,6.54,3.159v-2.92h6.84v22.32h-6.84v-3.24c-1.654,2.347-3.867,3.521-6.64,3.521
		C129.879,200.937,127.506,199.87,125.533,197.736z M137.813,193.576c0.986-0.96,1.48-2.32,1.48-4.08s-0.494-3.113-1.48-4.06
		c-0.987-0.946-2.12-1.42-3.4-1.42c-1.28,0-2.414,0.479-3.4,1.439c-0.987,0.96-1.48,2.32-1.48,4.08s0.493,3.114,1.48,4.061
		c0.986,0.946,2.12,1.42,3.4,1.42C135.693,195.017,136.826,194.536,137.813,193.576z"/>
	<path fill="#FFB700" d="M158.277,178.336v4.16c1.6-2.933,3.733-4.399,6.4-4.399v6.96h-1.68c-1.574,0-2.754,0.373-3.54,1.119
		c-0.787,0.747-1.18,2.055-1.18,3.921v10.56h-6.84v-22.32H158.277z"/>
	<path fill="#FFB700" d="M174.645,178.336v4.16c1.6-2.933,3.733-4.399,6.4-4.399v6.96h-1.68c-1.574,0-2.754,0.373-3.54,1.119
		c-0.787,0.747-1.18,2.055-1.18,3.921v10.56h-6.84v-22.32H174.645z"/>
	<path fill="#FFB700" d="M194.104,200.937c-3.254,0-5.92-1.047-8-3.141c-2.08-2.093-3.12-4.873-3.12-8.34
		c0-3.466,1.033-6.226,3.1-8.28c2.066-2.053,4.74-3.079,8.02-3.079s6,1.014,8.16,3.04c2.16,2.026,3.24,4.84,3.24,8.439
		c0,0.773-0.054,1.494-0.16,2.16h-15.36c0.133,0.986,0.573,1.794,1.32,2.42c0.746,0.627,1.553,0.94,2.42,0.94
		c0.866,0,1.513-0.087,1.94-0.261c0.426-0.173,0.74-0.346,0.94-0.52c0.2-0.173,0.46-0.46,0.78-0.86h7.4
		c-0.64,2.24-1.92,4.047-3.84,5.42C199.024,200.25,196.745,200.937,194.104,200.937z M197.024,184.916
		c-0.8-0.653-1.747-0.979-2.84-0.979c-1.094,0-2.014,0.326-2.76,0.979c-0.747,0.654-1.213,1.5-1.4,2.54h8.36
		C198.278,186.416,197.825,185.57,197.024,184.916z"/>
	<path fill="#FFB700" d="M216.208,178.336v3.28c1.413-2.347,3.667-3.52,6.761-3.52c2.56,0,4.633,0.854,6.219,2.56
		c1.587,1.707,2.381,4.027,2.381,6.96v13.04h-6.801v-12.12c0-1.439-0.379-2.553-1.14-3.34c-0.76-0.786-1.807-1.18-3.14-1.18
		c-1.334,0-2.38,0.394-3.14,1.18c-0.76,0.787-1.14,1.9-1.14,3.34v12.12h-6.84v-22.32H216.208z"/>
	<path fill="#FFB700" d="M238.22,197.736c-1.974-2.133-2.96-4.866-2.96-8.2c0-3.333,0.986-6.073,2.96-8.22s4.38-3.22,7.22-3.22
		s5.021,1.054,6.541,3.159v-10.199h6.84v29.6h-6.84v-3.24c-1.654,2.347-3.867,3.521-6.641,3.521S240.193,199.87,238.22,197.736z
		 M250.5,193.576c0.986-0.96,1.48-2.32,1.48-4.08s-0.494-3.113-1.48-4.06s-2.12-1.42-3.4-1.42c-1.279,0-2.414,0.479-3.4,1.439
		s-1.479,2.32-1.479,4.08s0.493,3.114,1.479,4.061s2.121,1.42,3.4,1.42C248.38,195.017,249.514,194.536,250.5,193.576z"/>
	<path fill="#FFB700" d="M265.695,197.736c-1.973-2.133-2.959-4.866-2.959-8.2c0-3.333,0.986-6.073,2.959-8.22
		c1.974-2.146,4.381-3.22,7.221-3.22s5.02,1.054,6.54,3.159v-2.92h6.84v22.32h-6.84v-3.24c-1.653,2.347-3.867,3.521-6.64,3.521
		C270.042,200.937,267.669,199.87,265.695,197.736z M277.977,193.576c0.986-0.96,1.479-2.32,1.479-4.08s-0.493-3.113-1.479-4.06
		c-0.987-0.946-2.121-1.42-3.4-1.42c-1.28,0-2.414,0.479-3.4,1.439s-1.48,2.32-1.48,4.08s0.494,3.114,1.48,4.061s2.12,1.42,3.4,1.42
		C275.855,195.017,276.989,194.536,277.977,193.576z"/>
	<path fill="#FFB700" d="M298.439,178.336v3.28c1.414-2.347,3.667-3.52,6.761-3.52c1.653,0,3.126,0.373,4.42,1.119
		c1.293,0.747,2.3,1.814,3.021,3.2c0.826-1.306,1.899-2.353,3.219-3.14c1.32-0.786,2.794-1.18,4.421-1.18
		c2.72,0,4.88,0.84,6.479,2.52s2.4,4.014,2.4,7v13.04h-6.801v-12.12c0-1.439-0.379-2.553-1.139-3.34
		c-0.761-0.786-1.808-1.18-3.141-1.18c-1.334,0-2.38,0.394-3.141,1.18c-0.76,0.787-1.139,1.9-1.139,3.34v12.12H307v-12.12
		c0-1.439-0.38-2.553-1.141-3.34c-0.76-0.786-1.807-1.18-3.139-1.18c-1.334,0-2.381,0.394-3.141,1.18
		c-0.76,0.787-1.141,1.9-1.141,3.34v12.12h-6.84v-22.32H298.439z"/>
	<path fill="#FFB700" d="M340.473,175.816c-0.774,0.773-1.721,1.16-2.841,1.16s-2.067-0.387-2.84-1.16
		c-0.774-0.773-1.16-1.727-1.16-2.86c0-1.133,0.386-2.086,1.16-2.859c0.772-0.773,1.72-1.16,2.84-1.16s2.066,0.387,2.841,1.16
		c0.772,0.773,1.159,1.727,1.159,2.859C341.632,174.09,341.245,175.043,340.473,175.816z M334.232,200.656v-22.32h6.84v22.32
		H334.232z"/>
	<path fill="#FFB700" d="M356.016,200.937c-3.254,0-5.92-1.047-8-3.141c-2.08-2.093-3.12-4.873-3.12-8.34
		c0-3.466,1.033-6.226,3.101-8.28c2.066-2.053,4.74-3.079,8.02-3.079s6,1.014,8.16,3.04s3.24,4.84,3.24,8.439
		c0,0.773-0.055,1.494-0.16,2.16h-15.36c0.134,0.986,0.573,1.794,1.32,2.42c0.746,0.627,1.553,0.94,2.42,0.94
		c0.866,0,1.513-0.087,1.94-0.261c0.426-0.173,0.739-0.346,0.939-0.52c0.2-0.173,0.46-0.46,0.779-0.86h7.4
		c-0.64,2.24-1.92,4.047-3.84,5.42C360.936,200.25,358.656,200.937,356.016,200.937z M358.936,184.916
		c-0.8-0.653-1.746-0.979-2.84-0.979s-2.014,0.326-2.76,0.979c-0.747,0.654-1.214,1.5-1.4,2.54h8.359
		C360.189,186.416,359.736,185.57,358.936,184.916z"/>
	<path fill="#FFB700" d="M378.119,178.336v3.28c1.413-2.347,3.666-3.52,6.76-3.52c2.561,0,4.633,0.854,6.221,2.56
		c1.586,1.707,2.38,4.027,2.38,6.96v13.04h-6.8v-12.12c0-1.439-0.381-2.553-1.141-3.34c-0.76-0.786-1.807-1.18-3.14-1.18
		c-1.334,0-2.38,0.394-3.14,1.18c-0.76,0.787-1.141,1.9-1.141,3.34v12.12h-6.84v-22.32H378.119z"/>
	<path fill="#FFB700" d="M407.875,194.856h2.44v5.8h-3.479c-2.508,0-4.447-0.553-5.82-1.66c-1.374-1.106-2.061-3.006-2.061-5.7
		v-9.279h-2.08v-5.681h2.08v-5.439h6.84v5.439h4.48v5.681h-4.48v9.279C405.795,194.336,406.488,194.856,407.875,194.856z"/>
	<path fill="#FFB700" d="M416.211,197.776c-2.254-2.106-3.38-4.88-3.38-8.32c0-3.439,1.12-6.193,3.36-8.26s5.013-3.1,8.32-3.1
		c3.306,0,6.072,1.033,8.299,3.1s3.341,4.82,3.341,8.26c0,3.44-1.106,6.214-3.32,8.32s-4.974,3.16-8.28,3.16
		S418.465,199.883,416.211,197.776z M427.831,193.656c0.906-0.96,1.36-2.347,1.36-4.16c0-1.812-0.467-3.193-1.4-4.14
		s-2.04-1.42-3.32-1.42c-1.279,0-2.379,0.474-3.299,1.42c-0.921,0.946-1.381,2.327-1.381,4.14c0,1.813,0.473,3.2,1.42,4.16
		c0.946,0.96,2.061,1.44,3.34,1.44C425.831,195.097,426.924,194.616,427.831,193.656z"/>
</g>
<polygon fill="#004876" points="76.213,32.437 43.775,32.437 43.775,0 32.437,0 32.437,32.437 0,32.437 0,43.775 32.437,43.775 
	32.437,76.213 43.775,76.213 43.775,43.775 76.213,43.775 "/>
<g>
	<path fill="#FFB700" d="M143.994,67.937c-3.54,0-5.491,1.898-5.849,5.695h-12.776c0-5.387,1.731-9.555,5.195-12.506
		c3.463-2.951,8.067-4.426,13.815-4.426c5.746,0,10.209,1.412,13.392,4.232c3.181,2.822,4.771,6.414,4.771,10.775
		c0,3.438-0.834,6.234-2.501,8.389c-1.668,2.154-3.375,3.592-5.118,4.311v0.307c5.746,2.207,8.62,6.646,8.62,13.316
		c0,5.029-1.681,8.992-5.042,11.891c-3.361,2.898-8.004,4.348-13.93,4.348s-10.763-1.512-14.508-4.541
		c-3.746-3.025-5.618-7.541-5.618-13.545h12.776c0.05,2.258,0.692,4.041,1.924,5.35s2.937,1.963,5.118,1.963
		c2.181,0,3.822-0.59,4.926-1.771c1.103-1.18,1.655-2.859,1.655-5.041c0-2.18-0.77-3.809-2.309-4.887
		c-1.539-1.078-4.054-1.617-7.542-1.617h-2.463V79.481h2.463c5.849,0,8.773-2.053,8.773-6.158c0-1.641-0.526-2.949-1.578-3.924
		C147.137,68.425,145.738,67.937,143.994,67.937z"/>
	<path fill="#FFB700" d="M181.007,60.239c2.848-1.385,6.221-2.078,10.121-2.078c3.899,0,7.273,0.693,10.121,2.078
		c2.848,1.387,5.092,3.361,6.734,5.928c1.642,2.566,2.848,5.477,3.618,8.734c0.77,3.26,1.154,6.941,1.154,11.045
		c0,4.105-0.385,7.787-1.154,11.045c-0.77,3.258-1.976,6.17-3.618,8.734c-1.643,2.566-3.887,4.541-6.734,5.928
		c-2.848,1.385-6.222,2.078-10.121,2.078c-3.9,0-7.273-0.693-10.121-2.078c-2.848-1.387-5.093-3.361-6.734-5.928
		c-1.643-2.564-2.848-5.477-3.618-8.734c-0.77-3.258-1.155-6.939-1.155-11.045c0-4.104,0.385-7.785,1.155-11.045
		c0.77-3.258,1.975-6.168,3.618-8.734C175.914,63.601,178.159,61.626,181.007,60.239z M195.014,71.362
		c-1.104-0.59-2.399-0.887-3.887-0.887c-1.489,0-2.784,0.297-3.887,0.887c-1.104,0.59-1.951,1.32-2.54,2.193
		c-0.591,0.873-1.066,2.027-1.424,3.463c-0.359,1.438-0.59,2.822-0.693,4.156c-0.103,1.334-0.153,2.924-0.153,4.771
		s0.05,3.438,0.153,4.771c0.103,1.336,0.333,2.721,0.693,4.156c0.358,1.438,0.833,2.592,1.424,3.463
		c0.589,0.873,1.436,1.605,2.54,2.193c1.103,0.592,2.398,0.887,3.887,0.887c1.488,0,2.783-0.295,3.887-0.887
		c1.103-0.588,1.949-1.32,2.54-2.193c0.589-0.871,1.064-2.025,1.424-3.463c0.358-1.436,0.59-2.82,0.693-4.156
		c0.102-1.334,0.154-2.924,0.154-4.771s-0.052-3.438-0.154-4.771c-0.103-1.334-0.334-2.719-0.693-4.156
		c-0.359-1.436-0.834-2.59-1.424-3.463C196.963,72.683,196.117,71.952,195.014,71.362z"/>
	<path fill="#FFB700" d="M217.01,105.804h10.853c2.257,5.182,2.848,10.055,1.771,14.623c-0.565,2.258-1.784,4.104-3.656,5.541
		c-1.874,1.436-4.323,2.154-7.35,2.154v-5.002c1.385,0,2.397-0.309,3.039-0.924s0.963-1.744,0.963-3.387v-1.23h-5.619V105.804z"/>
	<path fill="#FFB700" d="M245.51,60.239c2.848-1.385,6.221-2.078,10.121-2.078c3.898,0,7.273,0.693,10.121,2.078
		c2.848,1.387,5.092,3.361,6.734,5.928c1.641,2.566,2.848,5.477,3.617,8.734c0.77,3.26,1.154,6.941,1.154,11.045
		c0,4.105-0.385,7.787-1.154,11.045s-1.977,6.17-3.617,8.734c-1.643,2.566-3.887,4.541-6.734,5.928
		c-2.848,1.385-6.223,2.078-10.121,2.078c-3.9,0-7.273-0.693-10.121-2.078c-2.848-1.387-5.093-3.361-6.734-5.928
		c-1.643-2.564-2.848-5.477-3.617-8.734s-1.154-6.939-1.154-11.045c0-4.104,0.385-7.785,1.154-11.045
		c0.77-3.258,1.975-6.168,3.617-8.734C240.417,63.601,242.662,61.626,245.51,60.239z M259.518,71.362
		c-1.104-0.59-2.399-0.887-3.887-0.887c-1.489,0-2.784,0.297-3.887,0.887c-1.104,0.59-1.951,1.32-2.54,2.193
		c-0.591,0.873-1.065,2.027-1.424,3.463c-0.36,1.438-0.591,2.822-0.692,4.156c-0.104,1.334-0.154,2.924-0.154,4.771
		s0.051,3.438,0.154,4.771c0.102,1.336,0.332,2.721,0.692,4.156c0.358,1.438,0.833,2.592,1.424,3.463
		c0.589,0.873,1.436,1.605,2.54,2.193c1.103,0.592,2.397,0.887,3.887,0.887c1.487,0,2.782-0.295,3.887-0.887
		c1.103-0.588,1.949-1.32,2.539-2.193c0.59-0.871,1.064-2.025,1.424-3.463c0.359-1.436,0.59-2.82,0.693-4.156
		c0.102-1.334,0.154-2.924,0.154-4.771s-0.053-3.438-0.154-4.771c-0.104-1.334-0.334-2.719-0.693-4.156
		c-0.359-1.436-0.834-2.59-1.424-3.463S260.62,71.952,259.518,71.362z"/>
	<path fill="#FFB700" d="M294.621,60.239c2.848-1.385,6.221-2.078,10.12-2.078s7.273,0.693,10.121,2.078
		c2.848,1.387,5.092,3.361,6.734,5.928c1.642,2.566,2.848,5.477,3.617,8.734c0.771,3.26,1.155,6.941,1.155,11.045
		c0,4.105-0.385,7.787-1.155,11.045c-0.77,3.258-1.976,6.17-3.617,8.734c-1.643,2.566-3.887,4.541-6.734,5.928
		c-2.848,1.385-6.222,2.078-10.121,2.078s-7.272-0.693-10.12-2.078c-2.848-1.387-5.094-3.361-6.734-5.928
		c-1.644-2.564-2.848-5.477-3.618-8.734c-0.77-3.258-1.154-6.939-1.154-11.045c0-4.104,0.385-7.785,1.154-11.045
		c0.771-3.258,1.975-6.168,3.618-8.734C289.527,63.601,291.773,61.626,294.621,60.239z M308.628,71.362
		c-1.104-0.59-2.399-0.887-3.887-0.887c-1.489,0-2.784,0.297-3.887,0.887c-1.104,0.59-1.95,1.32-2.54,2.193
		s-1.064,2.027-1.424,3.463c-0.359,1.438-0.59,2.822-0.692,4.156c-0.104,1.334-0.153,2.924-0.153,4.771s0.05,3.438,0.153,4.771
		c0.103,1.336,0.333,2.721,0.692,4.156c0.359,1.438,0.834,2.592,1.424,3.463c0.59,0.873,1.436,1.605,2.54,2.193
		c1.103,0.592,2.397,0.887,3.887,0.887c1.487,0,2.782-0.295,3.887-0.887c1.103-0.588,1.95-1.32,2.54-2.193
		c0.59-0.871,1.064-2.025,1.424-3.463c0.358-1.436,0.59-2.82,0.693-4.156c0.102-1.334,0.153-2.924,0.153-4.771
		s-0.052-3.438-0.153-4.771c-0.104-1.334-0.335-2.719-0.693-4.156c-0.359-1.436-0.834-2.59-1.424-3.463
		S309.73,71.952,308.628,71.362z"/>
	<path fill="#FFB700" d="M343.731,60.239c2.848-1.385,6.221-2.078,10.12-2.078s7.273,0.693,10.121,2.078
		c2.848,1.387,5.092,3.361,6.734,5.928s2.848,5.477,3.617,8.734c0.771,3.26,1.155,6.941,1.155,11.045
		c0,4.105-0.385,7.787-1.155,11.045c-0.77,3.258-1.975,6.17-3.617,8.734c-1.643,2.566-3.887,4.541-6.734,5.928
		c-2.848,1.385-6.222,2.078-10.121,2.078s-7.272-0.693-10.12-2.078c-2.848-1.387-5.093-3.361-6.734-5.928
		c-1.644-2.564-2.848-5.477-3.618-8.734c-0.77-3.258-1.154-6.939-1.154-11.045c0-4.104,0.385-7.785,1.154-11.045
		c0.771-3.258,1.975-6.168,3.618-8.734C338.639,63.601,340.884,61.626,343.731,60.239z M357.738,71.362
		c-1.104-0.59-2.398-0.887-3.887-0.887s-2.783,0.297-3.887,0.887s-1.949,1.32-2.539,2.193s-1.065,2.027-1.424,3.463
		c-0.359,1.438-0.591,2.822-0.693,4.156c-0.104,1.334-0.153,2.924-0.153,4.771s0.05,3.438,0.153,4.771
		c0.103,1.336,0.334,2.721,0.693,4.156c0.358,1.438,0.834,2.592,1.424,3.463c0.59,0.873,1.436,1.605,2.539,2.193
		c1.104,0.592,2.398,0.887,3.887,0.887s2.783-0.295,3.887-0.887c1.104-0.588,1.95-1.32,2.541-2.193
		c0.589-0.871,1.064-2.025,1.424-3.463c0.357-1.436,0.589-2.82,0.692-4.156c0.103-1.334,0.153-2.924,0.153-4.771
		s-0.051-3.438-0.153-4.771c-0.104-1.334-0.335-2.719-0.692-4.156c-0.359-1.436-0.835-2.59-1.424-3.463
		C359.688,72.683,358.842,71.952,357.738,71.362z"/>
</g>
<g>
	<g>
		<path fill="#FFB700" d="M58.225,111.042c-1.974-2.133-2.96-4.866-2.96-8.2c0-3.333,0.986-6.073,2.96-8.22
			c1.973-2.146,4.38-3.22,7.22-3.22s5.02,1.054,6.54,3.159V84.362h6.84v29.6h-6.84v-3.24c-1.654,2.347-3.867,3.521-6.64,3.521
			C62.571,114.242,60.198,113.176,58.225,111.042z M70.505,106.882c0.986-0.96,1.48-2.32,1.48-4.08s-0.494-3.113-1.48-4.06
			c-0.987-0.946-2.12-1.42-3.4-1.42c-1.28,0-2.414,0.479-3.4,1.439c-0.987,0.96-1.48,2.32-1.48,4.08s0.493,3.114,1.48,4.061
			c0.986,0.946,2.12,1.42,3.4,1.42C68.385,108.322,69.519,107.842,70.505,106.882z"/>
		<path fill="#FFB700" d="M93.861,114.242c-3.254,0-5.92-1.047-8-3.141c-2.08-2.093-3.12-4.873-3.12-8.34
			c0-3.466,1.033-6.226,3.1-8.28c2.066-2.053,4.74-3.079,8.02-3.079s6,1.014,8.16,3.04c2.16,2.026,3.24,4.84,3.24,8.439
			c0,0.773-0.054,1.494-0.16,2.16h-15.36c0.133,0.986,0.573,1.794,1.32,2.42c0.746,0.627,1.553,0.94,2.42,0.94
			c0.866,0,1.513-0.087,1.94-0.261c0.426-0.173,0.74-0.346,0.94-0.52c0.2-0.173,0.46-0.46,0.78-0.86h7.4
			c-0.64,2.24-1.92,4.047-3.84,5.42C98.781,113.556,96.501,114.242,93.861,114.242z M96.781,98.222
			c-0.8-0.653-1.747-0.979-2.84-0.979c-1.094,0-2.014,0.326-2.76,0.979c-0.747,0.654-1.213,1.5-1.4,2.54h8.36
			C98.035,99.722,97.582,98.876,96.781,98.222z"/>
	</g>
</g>
</svg>
