<?xml version="1.0" encoding="utf-8"?>
<!-- Generator: Adobe Illustrator 16.0.0, SVG Export Plug-In . SVG Version: 6.00 Build 0)  -->
<!DOCTYPE svg PUBLIC "-//W3C//DTD SVG 1.1//EN" "http://www.w3.org/Graphics/SVG/1.1/DTD/svg11.dtd">
<svg version="1.1" id="Layer_1" xmlns="http://www.w3.org/2000/svg" xmlns:xlink="http://www.w3.org/1999/xlink" x="0px" y="0px"
	 width="394.969px" height="200.656px" viewBox="0 0 394.969 200.656" enable-background="new 0 0 394.969 200.656"
	 xml:space="preserve">
<g>
	<path fill="#FFB700" d="M101.215,156.457c-1.974-2.133-2.96-4.866-2.96-8.2c0-3.333,0.986-6.073,2.96-8.22
		c1.973-2.146,4.38-3.22,7.22-3.22s5.02,1.054,6.54,3.159v-10.199h6.84v29.6h-6.84v-3.24c-1.654,2.347-3.867,3.521-6.64,3.521
		C105.561,159.657,103.188,158.591,101.215,156.457z M113.495,152.297c0.986-0.96,1.48-2.32,1.48-4.08s-0.494-3.113-1.48-4.06
		c-0.987-0.946-2.12-1.42-3.4-1.42c-1.28,0-2.414,0.479-3.4,1.439c-0.987,0.96-1.48,2.32-1.48,4.08s0.493,3.114,1.48,4.061
		c0.986,0.946,2.12,1.42,3.4,1.42C111.375,153.737,112.508,153.257,113.495,152.297z"/>
	<path fill="#FFB700" d="M133.371,134.537c-0.774,0.773-1.72,1.16-2.84,1.16s-2.067-0.387-2.84-1.16
		c-0.774-0.773-1.16-1.727-1.16-2.86c0-1.133,0.386-2.086,1.16-2.859c0.773-0.773,1.72-1.16,2.84-1.16s2.066,0.387,2.84,1.16
		c0.773,0.773,1.16,1.727,1.16,2.859C134.531,132.811,134.144,133.764,133.371,134.537z M127.131,159.377v-22.32h6.84v22.32H127.131
		z"/>
	<path fill="#FFB700" d="M138.047,143.777c0-1.974,0.84-3.627,2.52-4.96c1.68-1.334,3.953-2,6.82-2c2.866,0,5.18,0.653,6.94,1.96
		c1.76,1.307,2.693,3.094,2.8,5.359h-7c-0.08-0.772-0.347-1.3-0.8-1.58c-0.454-0.279-1.133-0.42-2.04-0.42
		c-1.787,0-2.68,0.547-2.68,1.641c0,0.986,1.093,1.666,3.28,2.04c2.213,0.373,4.227,0.946,6.04,1.72
		c0.933,0.374,1.713,0.993,2.34,1.859c0.626,0.867,0.94,1.928,0.94,3.181c0,2.08-0.894,3.78-2.68,5.1
		c-1.787,1.32-4.04,1.98-6.76,1.98c-2.72,0-4.987-0.62-6.8-1.86c-1.813-1.24-2.8-3.073-2.96-5.5h7c0.187,1.36,1.146,2.04,2.88,2.04
		c0.8,0,1.46-0.187,1.98-0.56s0.78-0.854,0.78-1.44c0-0.586-0.434-1.053-1.3-1.4c-0.867-0.346-1.914-0.64-3.14-0.88
		c-1.227-0.239-2.46-0.54-3.7-0.899c-1.24-0.36-2.293-0.986-3.16-1.88S138.047,145.217,138.047,143.777z"/>
	<path fill="#FFB700" d="M168.146,139.977c1.52-2.105,3.7-3.159,6.54-3.159c2.84,0,5.247,1.073,7.22,3.22
		c1.973,2.146,2.96,4.887,2.96,8.22c0,3.334-0.987,6.067-2.96,8.2c-1.974,2.134-4.36,3.2-7.16,3.2c-2.8,0-5-1.174-6.6-3.521v13.88
		h-6.84v-32.96h6.84V139.977z M176.427,152.317c0.986-0.946,1.48-2.301,1.48-4.061s-0.494-3.12-1.48-4.08
		c-0.987-0.96-2.12-1.439-3.4-1.439c-1.28,0-2.414,0.474-3.4,1.42c-0.987,0.946-1.48,2.3-1.48,4.06s0.493,3.12,1.48,4.08
		c0.986,0.96,2.12,1.44,3.4,1.44C174.307,153.737,175.44,153.264,176.427,152.317z"/>
	<path fill="#FFB700" d="M190.718,156.497c-2.253-2.106-3.38-4.88-3.38-8.32c0-3.439,1.12-6.193,3.36-8.26
		c2.24-2.066,5.013-3.1,8.32-3.1s6.074,1.033,8.301,3.1s3.34,4.82,3.34,8.26c0,3.44-1.107,6.214-3.32,8.32
		c-2.214,2.106-4.974,3.16-8.279,3.16C195.751,159.657,192.972,158.604,190.718,156.497z M202.338,152.377
		c0.906-0.96,1.359-2.347,1.359-4.16c0-1.812-0.467-3.193-1.399-4.14c-0.934-0.946-2.04-1.42-3.319-1.42
		c-1.281,0-2.38,0.474-3.3,1.42c-0.92,0.946-1.38,2.327-1.38,4.14c0,1.813,0.473,3.2,1.42,4.16c0.946,0.96,2.06,1.44,3.341,1.44
		C200.338,153.817,201.432,153.337,202.338,152.377z"/>
	<path fill="#FFB700" d="M221.434,137.057v3.28c1.414-2.347,3.667-3.52,6.761-3.52c2.56,0,4.633,0.854,6.22,2.56
		c1.586,1.707,2.381,4.027,2.381,6.96v13.04h-6.801v-12.12c0-1.439-0.38-2.553-1.141-3.34c-0.76-0.786-1.807-1.18-3.139-1.18
		c-1.334,0-2.381,0.394-3.141,1.18c-0.76,0.787-1.141,1.9-1.141,3.34v12.12h-6.84v-22.32H221.434z"/>
	<path fill="#FFB700" d="M248.107,134.537c-0.774,0.773-1.72,1.16-2.841,1.16c-1.119,0-2.066-0.387-2.84-1.16s-1.16-1.727-1.16-2.86
		c0-1.133,0.387-2.086,1.16-2.859s1.721-1.16,2.84-1.16c1.121,0,2.066,0.387,2.841,1.16c0.772,0.773,1.159,1.727,1.159,2.859
		C249.266,132.811,248.879,133.764,248.107,134.537z M241.867,159.377v-22.32h6.84v22.32H241.867z"/>
	<path fill="#FFB700" d="M260.862,139.977c1.521-2.105,3.701-3.159,6.541-3.159s5.246,1.073,7.22,3.22s2.96,4.887,2.96,8.22
		c0,3.334-0.986,6.067-2.96,8.2c-1.974,2.134-4.36,3.2-7.16,3.2s-5-1.174-6.601-3.521v3.24h-6.84v-29.6h6.84V139.977z
		 M269.143,152.317c0.986-0.946,1.479-2.301,1.479-4.061s-0.493-3.12-1.479-4.08c-0.987-0.96-2.121-1.439-3.4-1.439
		c-1.28,0-2.414,0.474-3.4,1.42s-1.48,2.3-1.48,4.06s0.494,3.12,1.48,4.08s2.12,1.44,3.4,1.44
		C267.022,153.737,268.156,153.264,269.143,152.317z"/>
	<path fill="#FFB700" d="M287.667,134.537c-0.773,0.773-1.721,1.16-2.84,1.16c-1.121,0-2.067-0.387-2.84-1.16
		c-0.774-0.773-1.16-1.727-1.16-2.86c0-1.133,0.386-2.086,1.16-2.859c0.772-0.773,1.719-1.16,2.84-1.16
		c1.119,0,2.066,0.387,2.84,1.16s1.16,1.727,1.16,2.859C288.827,132.811,288.44,133.764,287.667,134.537z M281.426,159.377v-22.32
		h6.84v22.32H281.426z"/>
	<path fill="#FFB700" d="M293.61,159.377v-29.6h6.84v29.6H293.61z"/>
	<path fill="#FFB700" d="M312.034,134.537c-0.773,0.773-1.72,1.16-2.84,1.16s-2.066-0.387-2.84-1.16s-1.16-1.727-1.16-2.86
		c0-1.133,0.387-2.086,1.16-2.859s1.72-1.16,2.84-1.16s2.066,0.387,2.84,1.16s1.16,1.727,1.16,2.859
		C313.194,132.811,312.807,133.764,312.034,134.537z M305.793,159.377v-22.32h6.84v22.32H305.793z"/>
	<path fill="#FFB700" d="M319.417,156.457c-1.974-2.133-2.96-4.866-2.96-8.2c0-3.333,0.986-6.073,2.96-8.22s4.38-3.22,7.22-3.22
		s5.021,1.054,6.541,3.159v-10.199h6.84v29.6h-6.84v-3.24c-1.654,2.347-3.867,3.521-6.641,3.521S321.391,158.591,319.417,156.457z
		 M331.698,152.297c0.986-0.96,1.48-2.32,1.48-4.08s-0.494-3.113-1.48-4.06s-2.12-1.42-3.4-1.42c-1.279,0-2.414,0.479-3.4,1.439
		s-1.479,2.32-1.479,4.08s0.493,3.114,1.479,4.061s2.121,1.42,3.4,1.42C329.578,153.737,330.711,153.257,331.698,152.297z"/>
	<path fill="#FFB700" d="M346.893,156.457c-1.973-2.133-2.959-4.866-2.959-8.2c0-3.333,0.986-6.073,2.959-8.22
		c1.974-2.146,4.381-3.22,7.221-3.22s5.02,1.054,6.54,3.159v-2.92h6.84v22.32h-6.84v-3.24c-1.653,2.347-3.867,3.521-6.64,3.521
		C351.24,159.657,348.867,158.591,346.893,156.457z M359.174,152.297c0.986-0.96,1.479-2.32,1.479-4.08s-0.493-3.113-1.479-4.06
		c-0.987-0.946-2.121-1.42-3.4-1.42c-1.28,0-2.414,0.479-3.4,1.439s-1.48,2.32-1.48,4.08s0.494,3.114,1.48,4.061s2.12,1.42,3.4,1.42
		C357.053,153.737,358.187,153.257,359.174,152.297z"/>
	<path fill="#FFB700" d="M374.37,156.457c-1.974-2.133-2.96-4.866-2.96-8.2c0-3.333,0.986-6.073,2.96-8.22
		c1.973-2.146,4.381-3.22,7.221-3.22s5.02,1.054,6.539,3.159v-10.199h6.84v29.6h-6.84v-3.24c-1.653,2.347-3.867,3.521-6.64,3.521
		C378.715,159.657,376.342,158.591,374.37,156.457z M386.65,152.297c0.986-0.96,1.479-2.32,1.479-4.08s-0.493-3.113-1.479-4.06
		c-0.987-0.946-2.12-1.42-3.399-1.42c-1.281,0-2.414,0.479-3.4,1.439c-0.987,0.96-1.48,2.32-1.48,4.08s0.493,3.114,1.48,4.061
		c0.986,0.946,2.119,1.42,3.4,1.42C384.53,153.737,385.663,153.257,386.65,152.297z"/>
	<path fill="#FFB700" d="M101.215,196.457c-1.974-2.133-2.96-4.866-2.96-8.2c0-3.333,0.986-6.073,2.96-8.22
		c1.973-2.146,4.38-3.22,7.22-3.22s5.02,1.054,6.54,3.159v-10.199h6.84v29.6h-6.84v-3.24c-1.654,2.347-3.867,3.521-6.64,3.521
		C105.561,199.657,103.188,198.591,101.215,196.457z M113.495,192.297c0.986-0.96,1.48-2.32,1.48-4.08s-0.494-3.113-1.48-4.06
		c-0.987-0.946-2.12-1.42-3.4-1.42c-1.28,0-2.414,0.479-3.4,1.439c-0.987,0.96-1.48,2.32-1.48,4.08s0.493,3.114,1.48,4.061
		c0.986,0.946,2.12,1.42,3.4,1.42C111.375,193.737,112.508,193.257,113.495,192.297z"/>
	<path fill="#FFB700" d="M136.851,199.657c-3.254,0-5.92-1.047-8-3.141c-2.08-2.093-3.12-4.873-3.12-8.34
		c0-3.466,1.033-6.226,3.1-8.28c2.066-2.053,4.74-3.079,8.02-3.079s6,1.014,8.16,3.04c2.16,2.026,3.24,4.84,3.24,8.439
		c0,0.773-0.054,1.494-0.16,2.16h-15.36c0.133,0.986,0.573,1.794,1.32,2.42c0.746,0.627,1.553,0.94,2.42,0.94
		c0.866,0,1.513-0.087,1.94-0.261c0.426-0.173,0.74-0.346,0.94-0.52c0.2-0.173,0.46-0.46,0.78-0.86h7.4
		c-0.64,2.24-1.92,4.047-3.84,5.42C141.771,198.971,139.491,199.657,136.851,199.657z M139.771,183.637
		c-0.8-0.653-1.747-0.979-2.84-0.979c-1.094,0-2.014,0.326-2.76,0.979c-0.747,0.654-1.213,1.5-1.4,2.54h8.36
		C141.024,185.137,140.571,184.291,139.771,183.637z"/>
	<path fill="#FFB700" d="M152.166,199.377v-29.6h6.84v29.6H152.166z"/>
	<path fill="#FFB700" d="M183.845,177.057v3.28c1.413-2.347,3.667-3.52,6.76-3.52c1.653,0,3.126,0.373,4.42,1.119
		c1.293,0.747,2.3,1.814,3.02,3.2c0.826-1.306,1.9-2.353,3.22-3.14c1.32-0.786,2.794-1.18,4.421-1.18c2.719,0,4.879,0.84,6.479,2.52
		c1.6,1.68,2.399,4.014,2.399,7v13.04h-6.8v-12.12c0-1.439-0.38-2.553-1.14-3.34c-0.76-0.786-1.807-1.18-3.141-1.18
		c-1.333,0-2.379,0.394-3.14,1.18c-0.76,0.787-1.14,1.9-1.14,3.34v12.12h-6.8v-12.12c0-1.439-0.38-2.553-1.14-3.34
		c-0.76-0.786-1.807-1.18-3.14-1.18c-1.334,0-2.38,0.394-3.14,1.18c-0.76,0.787-1.14,1.9-1.14,3.34v12.12h-6.84v-22.32H183.845z"/>
	<path fill="#FFB700" d="M229.377,199.657c-3.254,0-5.92-1.047-8-3.141c-2.08-2.093-3.12-4.873-3.12-8.34
		c0-3.466,1.033-6.226,3.101-8.28c2.066-2.053,4.74-3.079,8.02-3.079s6,1.014,8.16,3.04s3.24,4.84,3.24,8.439
		c0,0.773-0.055,1.494-0.16,2.16h-15.36c0.134,0.986,0.573,1.794,1.32,2.42c0.746,0.627,1.553,0.94,2.42,0.94
		c0.866,0,1.513-0.087,1.94-0.261c0.426-0.173,0.739-0.346,0.939-0.52c0.2-0.173,0.46-0.46,0.779-0.86h7.4
		c-0.64,2.24-1.92,4.047-3.84,5.42C234.297,198.971,232.018,199.657,229.377,199.657z M232.297,183.637
		c-0.8-0.653-1.746-0.979-2.84-0.979s-2.014,0.326-2.76,0.979c-0.747,0.654-1.214,1.5-1.4,2.54h8.359
		C233.551,185.137,233.098,184.291,232.297,183.637z"/>
	<path fill="#FFB700" d="M251.481,177.057v4.16c1.6-2.933,3.732-4.399,6.4-4.399v6.96h-1.681c-1.573,0-2.754,0.373-3.54,1.119
		c-0.787,0.747-1.18,2.055-1.18,3.921v10.56h-6.84v-22.32H251.481z"/>
	<path fill="#FFB700" d="M262.897,196.537c-2.067-2.08-3.101-4.854-3.101-8.32c0-3.466,1.033-6.233,3.101-8.3
		c2.066-2.066,4.74-3.1,8.02-3.1c2.721,0,5.026,0.673,6.92,2.02c1.893,1.347,3.146,3.273,3.76,5.78h-7.4
		c-0.639-1.333-1.686-2-3.139-2c-1.455,0-2.534,0.514-3.24,1.54c-0.707,1.026-1.061,2.38-1.061,4.06s0.354,3.034,1.061,4.061
		c0.706,1.026,1.74,1.54,3.1,1.54c0.854,0,1.52-0.146,2-0.44c0.48-0.293,0.906-0.813,1.279-1.56h7.4
		c-0.613,2.399-1.88,4.307-3.8,5.72c-1.92,1.414-4.214,2.12-6.88,2.12C267.637,199.657,264.963,198.617,262.897,196.537z"/>
	<path fill="#FFB700" d="M286.636,196.457c-1.974-2.133-2.96-4.866-2.96-8.2c0-3.333,0.986-6.073,2.96-8.22s4.38-3.22,7.22-3.22
		s5.021,1.054,6.541,3.159v-2.92h6.84v22.32h-6.84v-3.24c-1.654,2.347-3.867,3.521-6.641,3.521S288.61,198.591,286.636,196.457z
		 M298.917,192.297c0.986-0.96,1.48-2.32,1.48-4.08s-0.494-3.113-1.48-4.06s-2.12-1.42-3.4-1.42c-1.279,0-2.414,0.479-3.4,1.439
		s-1.479,2.32-1.479,4.08s0.493,3.114,1.479,4.061s2.121,1.42,3.4,1.42C296.796,193.737,297.93,193.257,298.917,192.297z"/>
	<path fill="#FFB700" d="M314.112,196.457c-1.974-2.133-2.96-4.866-2.96-8.2c0-3.333,0.986-6.073,2.96-8.22
		c1.973-2.146,4.381-3.22,7.221-3.22s5.02,1.054,6.539,3.159v-10.199h6.84v29.6h-6.84v-3.24c-1.653,2.347-3.867,3.521-6.64,3.521
		C318.458,199.657,316.084,198.591,314.112,196.457z M326.392,192.297c0.986-0.96,1.479-2.32,1.479-4.08s-0.493-3.113-1.479-4.06
		c-0.987-0.946-2.12-1.42-3.399-1.42c-1.281,0-2.414,0.479-3.4,1.439c-0.987,0.96-1.48,2.32-1.48,4.08s0.493,3.114,1.48,4.061
		c0.986,0.946,2.119,1.42,3.4,1.42C324.272,193.737,325.405,193.257,326.392,192.297z"/>
	<path fill="#FFB700" d="M341.956,196.497c-2.253-2.106-3.379-4.88-3.379-8.32c0-3.439,1.119-6.193,3.359-8.26s5.014-3.1,8.32-3.1
		s6.073,1.033,8.3,3.1s3.341,4.82,3.341,8.26c0,3.44-1.107,6.214-3.32,8.32c-2.215,2.106-4.975,3.16-8.28,3.16
		C346.989,199.657,344.209,198.604,341.956,196.497z M353.577,192.377c0.906-0.96,1.359-2.347,1.359-4.16
		c0-1.812-0.467-3.193-1.4-4.14s-2.039-1.42-3.319-1.42s-2.38,0.474-3.3,1.42s-1.381,2.327-1.381,4.14c0,1.813,0.474,3.2,1.42,4.16
		c0.947,0.96,2.061,1.44,3.341,1.44S352.669,193.337,353.577,192.377z"/>
</g>
<polygon fill="#004876" points="0,0 0,10.64 40.247,36.825 0,63.08 0,73.651 56.788,36.825 "/>
<polygon fill="#004876" points="44.645,0 44.645,10.64 84.892,36.825 44.645,63.08 44.645,73.651 101.433,36.825 "/>
<g>
	<path fill="#FFB700" d="M163.854,58.653v54.029h-13.161V82.204l-12.545,30.479h-9.774l-12.545-30.479v30.479h-13.161V58.653h15.085
		l15.547,37.25l15.47-37.25H163.854z"/>
	<path fill="#FFB700" d="M207.832,112.683l-3.002-9.082h-19.395l-3.002,9.082h-14.008l18.78-54.184h16.008l18.703,54.184H207.832z
		 M188.745,93.595h12.775l-6.388-19.24L188.745,93.595z"/>
	<path fill="#FFB700" d="M248.138,112.683h-13.161V95.288l-18.703-36.635h14.932l10.391,24.396l10.312-24.396h14.932l-18.702,36.635
		V112.683z"/>
	<path fill="#FFB700" d="M273.159,105.37c-5.362-5.232-8.043-11.852-8.043-19.857c0-8.004,2.681-14.609,8.043-19.818
		c5.361-5.207,11.93-7.811,19.703-7.811s14.315,2.604,19.626,7.811c5.311,5.209,7.966,11.814,7.966,19.818
		c0,8.006-2.668,14.625-8.004,19.857c-5.338,5.234-11.879,7.852-19.627,7.852S278.52,110.604,273.159,105.37z M303.174,96.827
		c2.591-2.82,3.887-6.592,3.887-11.314c0-4.719-1.296-8.49-3.887-11.312s-6.055-4.234-10.39-4.234c-4.337,0-7.8,1.412-10.39,4.234
		c-2.592,2.822-3.887,6.594-3.887,11.312c0,4.723,1.295,8.494,3.887,11.314c2.59,2.822,6.053,4.232,10.39,4.232
		C297.12,101.06,300.583,99.649,303.174,96.827z"/>
	<path fill="#FFB700" d="M340.665,91.671v21.012h-13.161V58.653h21.319c6.26,0,11.133,1.615,14.623,4.848
		c3.488,3.232,5.234,7.133,5.234,11.699c0,3.131-0.951,6.184-2.849,9.158c-1.898,2.977-5.003,5.08-9.312,6.312l13.237,22.012
		h-15.393l-12.16-21.012H340.665z M340.665,68.659v13.006h8.158c2.001,0,3.578-0.59,4.732-1.77c1.155-1.18,1.732-2.732,1.732-4.656
		s-0.59-3.502-1.77-4.734c-1.182-1.23-2.746-1.846-4.695-1.846H340.665z"/>
</g>
</svg>
