<?xml version="1.0" encoding="utf-8"?>
<!-- Generator: Adobe Illustrator 16.0.0, SVG Export Plug-In . SVG Version: 6.00 Build 0)  -->
<!DOCTYPE svg PUBLIC "-//W3C//DTD SVG 1.1//EN" "http://www.w3.org/Graphics/SVG/1.1/DTD/svg11.dtd">
<svg version="1.1" id="Layer_1" xmlns="http://www.w3.org/2000/svg" xmlns:xlink="http://www.w3.org/1999/xlink" x="0px" y="0px"
	 width="674.774px" height="674.786px" viewBox="0 0 674.774 674.786" enable-background="new 0 0 674.774 674.786"
	 xml:space="preserve">
<g>
	<path fill="#0082CA" d="M39.381,337.399c0-164.317,133.688-298.006,298.007-298.006l0,0V0l0,0C151.338,0,0,151.351,0,337.399
		c0,110.124,53.021,208.05,134.886,269.675l23.639-31.484C86.217,521.176,39.381,434.665,39.381,337.399z"/>
	<path fill="#FBB516" d="M674.774,337.399c0-110.124-53.045-208.074-134.91-269.699l-23.639,31.485
		c72.308,54.438,119.145,140.948,119.145,238.214c0,164.318-133.664,298.007-297.982,298.007v39.38
		C523.413,674.786,674.774,523.425,674.774,337.399z"/>
</g>
</svg>
