<?xml version="1.0" encoding="utf-8"?>
<!-- Generator: Adobe Illustrator 16.0.0, SVG Export Plug-In . SVG Version: 6.00 Build 0)  -->
<!DOCTYPE svg PUBLIC "-//W3C//DTD SVG 1.1//EN" "http://www.w3.org/Graphics/SVG/1.1/DTD/svg11.dtd">
<svg version="1.1" id="Layer_1" xmlns="http://www.w3.org/2000/svg" xmlns:xlink="http://www.w3.org/1999/xlink" x="0px" y="0px"
	 width="395.809px" height="150.734px" viewBox="144.125 242.034 395.809 150.734"
	 enable-background="new 144.125 242.034 395.809 150.734" xml:space="preserve">
<g>
	<path fill="#FFFFFF" d="M175.989,327.581c-3.182,3.155-7.569,4.733-13.161,4.733c-5.593,0-10.109-1.489-13.546-4.465
		c-3.438-2.977-5.157-7.094-5.157-12.353c0-5.26,1.475-9.056,4.426-11.392c2.95-2.334,7.221-3.552,12.814-3.655v-7.312h12.391
		v15.854H168.6c-4.002,0-6.954,0.462-8.851,1.386c-1.899,0.923-2.848,2.693-2.848,5.312c0,1.742,0.5,3.154,1.5,4.231
		c1.001,1.078,2.386,1.616,4.156,1.616c1.771,0,3.156-0.526,4.156-1.577c1-1.053,1.501-2.477,1.501-4.271h12.391
		C180.709,320.461,179.17,324.425,175.989,327.581z M167.253,273.744c2.026,0,3.733,0.692,5.118,2.078
		c1.385,1.386,2.078,3.092,2.078,5.118c0,2.027-0.693,3.732-2.078,5.118c-1.385,1.386-3.092,2.078-5.118,2.078
		c-2.027,0-3.733-0.692-5.118-2.078c-1.385-1.386-2.078-3.091-2.078-5.118c0-2.026,0.693-3.732,2.078-5.118
		C163.52,274.436,165.226,273.744,167.253,273.744z"/>
	<path fill="#FFFFFF" d="M212.108,317.691c-7.748,0-14.304-2.617-19.665-7.852c-5.362-5.233-8.043-11.853-8.043-19.857
		s2.681-14.609,8.043-19.818c5.361-5.207,11.93-7.812,19.703-7.812s14.315,2.604,19.626,7.812
		c5.311,5.209,7.966,11.814,7.966,19.818c0,4.516-0.912,8.659-2.732,12.431c-1.822,3.771-4.323,6.914-7.504,9.428l11.006,14.161
		h-15.932l-6.542-8.928C215.982,317.485,214.006,317.691,212.108,317.691z M201.68,278.669c-2.592,2.822-3.887,6.594-3.887,11.313
		c0,4.722,1.295,8.493,3.887,11.314c2.59,2.822,6.054,4.232,10.39,4.232c4.335,0,7.799-1.41,10.39-4.232
		c2.59-2.821,3.887-6.593,3.887-11.314c0-4.72-1.296-8.491-3.887-11.313c-2.591-2.821-6.055-4.233-10.39-4.233
		C207.733,274.436,204.27,275.848,201.68,278.669z"/>
	<path fill="#FFFFFF" d="M246.365,295.371v-32.248h13.161v32.248c0,3.232,0.795,5.722,2.386,7.466
		c1.59,1.745,3.925,2.617,7.004,2.617s5.438-0.872,7.081-2.617c1.642-1.744,2.463-4.233,2.463-7.466v-32.248h13.161v32.248
		c0,4.772-1.116,8.89-3.348,12.354c-2.232,3.463-5.054,5.991-8.466,7.581c-3.413,1.591-7.119,2.387-11.121,2.387
		c-6.261,0-11.545-1.949-15.855-5.851C248.52,307.943,246.365,302.452,246.365,295.371z"/>
	<path fill="#FFFFFF" d="M334.111,262.968v10.006h-19.549v11.622h17.24v10.005h-17.24v12.545h19.549v10.006h-32.71v-54.185H334.111z
		 M308.02,250.962l18.549-8.928v10.236l-18.549,7.773V250.962z"/>
	<path fill="#FFFFFF" d="M401.223,262.968v10.006h-19.551v11.622h17.24v10.005h-17.24v12.545h19.551v10.006h-32.711v-54.185H401.223
		z"/>
	<path fill="#FFFFFF" d="M427.758,272.744c-1.643,0-2.988,0.437-4.041,1.308c-1.051,0.873-1.576,2.13-1.576,3.771
		c0,1.643,0.486,2.963,1.463,3.964c0.973,1,2.242,1.771,3.809,2.309c1.564,0.539,3.311,1.053,5.234,1.54
		c1.924,0.487,3.834,1.077,5.732,1.771c1.898,0.693,3.629,1.553,5.195,2.578c1.562,1.027,2.834,2.477,3.811,4.349
		c0.975,1.874,1.461,4.118,1.461,6.734c0,4.567-1.859,8.479-5.578,11.737c-3.723,3.259-8.621,4.889-14.701,4.889
		s-10.98-1.464-14.699-4.389c-3.721-2.924-5.58-7.08-5.58-12.468h14.008c0.357,4.31,2.564,6.465,6.619,6.465
		c1.896,0,3.385-0.5,4.463-1.501c1.078-1,1.617-2.271,1.617-3.81c0-1.539-0.488-2.796-1.463-3.771
		c-0.977-0.974-2.246-1.743-3.811-2.309c-1.564-0.564-3.309-1.09-5.232-1.578c-1.924-0.486-3.836-1.089-5.734-1.809
		c-1.898-0.718-3.631-1.577-5.195-2.578c-1.564-1.001-2.836-2.437-3.811-4.31c-0.975-1.873-1.461-4.092-1.461-6.658
		c0-5.027,1.871-9.055,5.617-12.083c3.746-3.027,8.529-4.541,14.354-4.541s10.531,1.321,14.123,3.964s5.465,6.812,5.619,12.507
		h-14.316c-0.205-1.949-0.834-3.45-1.885-4.503C430.747,273.27,429.401,272.744,427.758,272.744z"/>
	<path fill="#FFFFFF" d="M190.296,338.2h13.161v44.022h16.394v10.007h-29.554L190.296,338.2L190.296,338.2z"/>
	<path fill="#FFFFFF" d="M257.508,338.045v10.006h-19.549v11.622h17.24v10.005h-17.24v12.545h19.549v10.007h-32.71v-54.185H257.508z
		"/>
	<path fill="#FFFFFF" d="M301.339,392.229l-3.001-9.081h-19.396l-3.001,9.081h-14.007l18.779-54.184h16.009l18.702,54.184H301.339z
		 M282.251,373.142h12.776l-6.388-19.24L282.251,373.142z"/>
	<path fill="#FFFFFF" d="M336.788,347.821c-1.643,0-2.989,0.437-4.041,1.308c-1.052,0.873-1.578,2.13-1.578,3.771
		c0,1.643,0.487,2.963,1.462,3.964c0.974,1,2.244,1.771,3.81,2.309c1.564,0.539,3.31,1.053,5.233,1.54
		c1.924,0.487,3.834,1.077,5.733,1.771c1.898,0.692,3.631,1.553,5.195,2.577c1.564,1.027,2.835,2.478,3.811,4.35
		c0.975,1.874,1.463,4.118,1.463,6.734c0,4.566-1.86,8.479-5.58,11.736c-3.721,3.259-8.621,4.888-14.7,4.888
		c-6.08,0-10.98-1.463-14.7-4.388c-3.721-2.924-5.58-7.08-5.58-12.468h14.008c0.358,4.31,2.565,6.465,6.619,6.465
		c1.897,0,3.386-0.5,4.464-1.501c1.078-1,1.616-2.271,1.616-3.81s-0.488-2.796-1.462-3.771c-0.975-0.974-2.245-1.743-3.81-2.309
		c-1.566-0.564-3.31-1.09-5.234-1.578c-1.924-0.486-3.836-1.089-5.734-1.81c-1.899-0.718-3.63-1.576-5.195-2.577
		c-1.566-1.001-2.836-2.438-3.81-4.311c-0.975-1.873-1.462-4.092-1.462-6.658c0-5.026,1.873-9.055,5.619-12.083
		c3.745-3.026,8.53-4.541,14.354-4.541c5.823,0,10.53,1.321,14.123,3.965c3.592,2.643,5.465,6.812,5.618,12.507h-14.315
		c-0.206-1.949-0.834-3.45-1.885-4.503C339.776,348.347,338.43,347.821,336.788,347.821z"/>
	<path fill="#FFFFFF" d="M366.219,392.229V338.2h13.16v54.028H366.219z"/>
	<path fill="#FFFFFF" d="M424.68,338.045h13.162v54.184H424.68l-22.012-34.096v34.096h-13.16v-54.184h13.16l22.012,34.096V338.045z"
		/>
	<path fill="#FFFFFF" d="M452.905,384.878c-5.363-5.207-8.043-11.812-8.043-19.818c0-8.004,2.68-14.608,8.043-19.817
		c5.359-5.207,11.916-7.812,19.664-7.812c6.004,0,11.34,1.592,16.01,4.771c4.668,3.183,7.926,7.595,9.773,13.238h-15.701
		c-2.053-3.95-5.336-5.928-9.852-5.928s-8.068,1.412-10.66,4.233c-2.592,2.822-3.887,6.594-3.887,11.312
		c0,4.723,1.295,8.493,3.887,11.314c2.592,2.822,6.068,4.231,10.43,4.231c3.129,0,5.682-0.78,7.658-2.347
		c1.975-1.563,3.297-3.656,3.963-6.272h-15.238v-10.006h29.4v10.006c-0.977,4.926-3.67,9.519-8.082,13.776
		c-2.104,2.054-4.707,3.722-7.812,5.003c-3.104,1.283-6.4,1.924-9.889,1.924C464.821,392.691,458.264,390.087,452.905,384.878z"/>
	<path fill="#FFFFFF" d="M508.073,338.392c3.18-3.154,7.566-4.732,13.16-4.732c5.592,0,10.107,1.489,13.545,4.464
		c3.438,2.977,5.156,7.094,5.156,12.354c0,5.261-1.475,9.057-4.426,11.392c-2.949,2.335-7.223,3.554-12.812,3.655v7.312h-12.393
		V356.98h5.156c4.002,0,6.953-0.462,8.852-1.385c1.898-0.924,2.848-2.693,2.848-5.311c0-1.744-0.5-3.156-1.5-4.233
		c-1-1.078-2.387-1.616-4.156-1.616s-3.156,0.526-4.156,1.577c-1,1.054-1.5,2.478-1.5,4.272h-12.393
		C503.35,345.511,504.889,341.547,508.073,338.392z M516.807,392.229c-2.027,0-3.732-0.691-5.117-2.077
		c-1.387-1.387-2.078-3.092-2.078-5.118s0.691-3.732,2.078-5.118c1.385-1.386,3.09-2.078,5.117-2.078
		c2.025,0,3.732,0.692,5.117,2.078c1.387,1.386,2.078,3.092,2.078,5.118s-0.691,3.731-2.078,5.118
		C520.54,391.537,518.833,392.229,516.807,392.229z"/>
</g>
</svg>
