<?xml version="1.0" encoding="utf-8"?>
<!-- Generator: Adobe Illustrator 16.0.0, SVG Export Plug-In . SVG Version: 6.00 Build 0)  -->
<!DOCTYPE svg PUBLIC "-//W3C//DTD SVG 1.1//EN" "http://www.w3.org/Graphics/SVG/1.1/DTD/svg11.dtd">
<svg version="1.1" id="Layer_1" xmlns="http://www.w3.org/2000/svg" xmlns:xlink="http://www.w3.org/1999/xlink" x="0px" y="0px"
	 width="228.5px" height="62.337px" viewBox="0 0 228.5 62.337" enable-background="new 0 0 228.5 62.337" xml:space="preserve">
<g>
	<g>
		<g>
			<path fill="#FFB700" d="M73.6,18.939c-1.414,1.387-2.9,1.932-4.708,1.932c-3.549,0-6.5-2.129-6.5-6.468
				c0-4.339,2.95-6.471,6.5-6.471c1.733,0,3.069,0.496,4.409,1.81l-1.912,2.008c-0.716-0.645-1.608-0.966-2.451-0.966
				c-2.032,0-3.52,1.488-3.52,3.62c0,2.33,1.588,3.571,3.473,3.571c0.963,0,1.929-0.276,2.675-1.018L73.6,18.939z"/>
			<path fill="#FFB700" d="M84.332,8.278h2.9V20.5h-2.85l-0.146-1.782c-0.696,1.436-2.606,2.132-3.968,2.154
				c-3.622,0.026-6.296-2.206-6.296-6.495c0-4.214,2.8-6.42,6.368-6.398c1.636,0,3.2,0.77,3.896,1.985L84.332,8.278z M76.991,14.376
				c0,2.33,1.616,3.719,3.621,3.719c4.761,0,4.761-7.414,0-7.414C78.607,10.682,76.991,12.046,76.991,14.376z"/>
			<path fill="#FFB700" d="M97.073,11.528c-0.868-0.818-1.856-1.094-3.02-1.094c-1.443,0-2.237,0.448-2.237,1.216
				c0,0.793,0.723,1.239,2.283,1.339c2.307,0.148,5.23,0.668,5.23,3.917c0,2.157-1.758,4.014-5.257,4.014
				c-1.931,0-3.869-0.321-5.648-2.179l1.489-2.16c0.862,0.968,2.848,1.688,4.211,1.712c1.141,0.025,2.205-0.57,2.205-1.462
				c0-0.843-0.693-1.189-2.43-1.291c-2.304-0.17-5.057-1.016-5.057-3.791c0-2.825,2.925-3.818,5.158-3.818
				c1.906,0,3.349,0.372,4.761,1.611L97.073,11.528z"/>
			<path fill="#FFB700" d="M110.317,8.278h2.898V20.5h-2.852l-0.148-1.782c-0.697,1.436-2.605,2.132-3.966,2.154
				c-3.622,0.026-6.298-2.206-6.298-6.495c0-4.214,2.802-6.42,6.373-6.398c1.634,0,3.195,0.77,3.892,1.985L110.317,8.278z
				 M102.975,14.376c0,2.33,1.612,3.719,3.618,3.719c4.764,0,4.764-7.414,0-7.414C104.587,10.682,102.975,12.046,102.975,14.376z"/>
		</g>
		<g>
			<path fill="#FFB700" d="M124.018,20.5v-6.395c0-1.859-1.018-3.274-2.949-3.274c-1.857,0-3.122,1.564-3.122,3.422V20.5h-3V8.255
				h2.704l0.194,1.659c1.241-1.214,2.48-1.833,4.017-1.833c2.875,0,5.184,2.154,5.184,5.997V20.5H124.018z"/>
			<path fill="#FFB700" d="M140.947,14.403c0,3.52-2.4,6.372-6.369,6.372c-3.965,0-6.344-2.852-6.344-6.372
				c0-3.496,2.43-6.373,6.32-6.373C138.443,8.03,140.947,10.907,140.947,14.403z M131.254,14.403c0,1.859,1.117,3.593,3.324,3.593
				s3.322-1.734,3.322-3.593c0-1.835-1.287-3.62-3.322-3.62C132.396,10.783,131.254,12.567,131.254,14.403z"/>
			<path fill="#FFB700" d="M153.867,8.255l-5.207,12.296h-3.271l-5.231-12.296h3.296l1.687,4.041l1.885,5.157l1.859-5.109
				l1.687-4.089H153.867z"/>
			<path fill="#FFB700" d="M163.635,8.278h2.898V20.5h-2.848l-0.15-1.782c-0.694,1.436-2.6,2.132-3.967,2.154
				c-3.62,0.026-6.3-2.206-6.3-6.495c0-4.214,2.802-6.42,6.376-6.398c1.634,0,3.196,0.77,3.891,1.985L163.635,8.278z
				 M156.297,14.376c0,2.33,1.609,3.719,3.617,3.719c4.761,0,4.761-7.414,0-7.414C157.906,10.682,156.297,12.046,156.297,14.376z"/>
		</g>
	</g>
	<g>
		<path fill="#FFFFFF" d="M15.3,31.725c0-7.539,6.131-13.67,13.666-13.67h3.796V8.161h-3.796c-12.99,0-23.562,10.572-23.562,23.564
			c0,7.463,3.433,14.328,9.414,18.836l3.039,2.282l5.94-7.913l-3.026-2.283C17.292,40.035,15.3,36.051,15.3,31.725z"/>
		<path fill="#FFB700" d="M43.116,12.892l-3.036-2.285l-5.942,7.912l3.028,2.279c3.477,2.618,5.471,6.601,5.471,10.928
			c0,7.534-6.134,13.666-13.671,13.666h-3.792v9.896h3.792c12.996,0,23.565-10.57,23.565-23.562
			C52.531,24.261,49.101,17.396,43.116,12.892z"/>
	</g>
	<g>
		<path fill="#FFFFFF" d="M87.544,54.598h-6.006l-7.806-8.955h-4.859v8.955h-5.051V27.773c4.243,0,8.491,0.038,12.74,0.038
			c6.315,0.041,9.643,4.25,9.643,8.879c0,3.676-1.679,7.387-6.772,8.418l8.112,9.146V54.598z M68.874,32.518v8.572h7.688
			c3.215,0,4.592-2.143,4.592-4.283c0-2.145-1.416-4.289-4.592-4.289H68.874z"/>
		<path fill="#FFFFFF" d="M109.591,54.598H89.539c0-8.916,0-17.869,0-26.788h20.052v4.898H94.553v6.163h14.503v4.705H94.553v6.049
			h15.039V54.598z"/>
		<path fill="#FFFFFF" d="M130.752,27.773h5.052v26.825h-3.136v0.04l-14.085-18.103v18.062h-5.049V27.811h4.094l13.124,16.61V27.773
			z"/>
		<path fill="#FFFFFF" d="M146.217,32.403h-8.498v-4.592c7.73,0,14.276,0,22.044,0v4.592h-8.497v22.195h-5.049V32.403z"/>
		<path fill="#FFFFFF" d="M162.1,54.598V27.811h5.01v26.788H162.1z"/>
		<path fill="#FFFFFF" d="M189.842,27.773h5.048v26.825h-3.138v0.04l-14.078-18.103v18.062h-5.051V27.811h4.094l13.125,16.61V27.773
			z"/>
		<path fill="#FFFFFF" d="M219.039,34.357c-1.795-1.724-4.473-2.68-6.809-2.68c-5.74,0-9.223,4.363-9.223,9.873
			c0,4.399,2.562,8.955,9.223,8.955c2.105,0,3.939-0.458,6.045-2.144v-4.745h-6.847v-4.518h11.477v11.29
			c-2.638,3.021-5.97,4.823-10.675,4.823c-10.066,0-14.16-6.619-14.16-13.662c0-7.539,4.708-14.502,14.16-14.502
			c3.598,0,7.193,1.376,9.949,4.094L219.039,34.357z"/>
	</g>
</g>
</svg>
