<?xml version="1.0" encoding="utf-8"?>
<!-- Generator: Adobe Illustrator 16.0.0, SVG Export Plug-In . SVG Version: 6.00 Build 0)  -->
<!DOCTYPE svg PUBLIC "-//W3C//DTD SVG 1.1//EN" "http://www.w3.org/Graphics/SVG/1.1/DTD/svg11.dtd">
<svg version="1.1" id="Layer_1" xmlns="http://www.w3.org/2000/svg" xmlns:xlink="http://www.w3.org/1999/xlink" x="0px" y="0px"
	 width="228.5px" height="186px" viewBox="0 0.168 228.5 186" enable-background="new 0 0.168 228.5 186" xml:space="preserve">
<g>
	<g>
		<g>
			<path fill="#FFB700" d="M73.6,18.939c-1.414,1.387-2.9,1.932-4.708,1.932c-3.549,0-6.5-2.129-6.5-6.468
				c0-4.339,2.95-6.471,6.5-6.471c1.733,0,3.069,0.496,4.409,1.81l-1.912,2.008c-0.716-0.645-1.608-0.966-2.451-0.966
				c-2.032,0-3.52,1.488-3.52,3.62c0,2.33,1.588,3.571,3.473,3.571c0.963,0,1.929-0.276,2.675-1.018L73.6,18.939z"/>
			<path fill="#FFB700" d="M84.332,8.278h2.9V20.5h-2.85l-0.146-1.782c-0.696,1.436-2.606,2.132-3.968,2.154
				c-3.622,0.026-6.296-2.206-6.296-6.495c0-4.214,2.8-6.42,6.368-6.398c1.636,0,3.2,0.77,3.896,1.985L84.332,8.278z M76.991,14.376
				c0,2.33,1.616,3.719,3.621,3.719c4.761,0,4.761-7.414,0-7.414C78.607,10.682,76.991,12.046,76.991,14.376z"/>
			<path fill="#FFB700" d="M97.073,11.528c-0.868-0.818-1.856-1.094-3.021-1.094c-1.443,0-2.237,0.448-2.237,1.216
				c0,0.793,0.723,1.239,2.283,1.339c2.307,0.148,5.23,0.668,5.23,3.917c0,2.157-1.758,4.014-5.257,4.014
				c-1.931,0-3.869-0.321-5.648-2.179l1.489-2.16c0.862,0.968,2.848,1.688,4.211,1.712c1.141,0.025,2.205-0.57,2.205-1.462
				c0-0.843-0.693-1.189-2.43-1.291c-2.304-0.17-5.057-1.016-5.057-3.791c0-2.825,2.925-3.818,5.158-3.818
				c1.906,0,3.349,0.372,4.761,1.611L97.073,11.528z"/>
			<path fill="#FFB700" d="M110.317,8.278h2.898V20.5h-2.852l-0.148-1.782c-0.697,1.436-2.605,2.132-3.966,2.154
				c-3.622,0.026-6.298-2.206-6.298-6.495c0-4.214,2.802-6.42,6.373-6.398c1.634,0,3.195,0.77,3.892,1.985L110.317,8.278z
				 M102.975,14.376c0,2.33,1.612,3.719,3.618,3.719c4.764,0,4.764-7.414,0-7.414C104.587,10.682,102.975,12.046,102.975,14.376z"/>
		</g>
		<g>
			<path fill="#FFB700" d="M124.018,20.5v-6.395c0-1.859-1.018-3.274-2.949-3.274c-1.856,0-3.121,1.564-3.121,3.422V20.5h-3V8.255
				h2.703l0.194,1.659c1.241-1.214,2.48-1.833,4.017-1.833c2.875,0,5.185,2.154,5.185,5.997V20.5H124.018z"/>
			<path fill="#FFB700" d="M140.947,14.403c0,3.52-2.4,6.372-6.369,6.372c-3.965,0-6.344-2.852-6.344-6.372
				c0-3.496,2.43-6.373,6.32-6.373C138.443,8.03,140.947,10.907,140.947,14.403z M131.254,14.403c0,1.859,1.117,3.593,3.324,3.593
				s3.322-1.734,3.322-3.593c0-1.835-1.287-3.62-3.322-3.62C132.396,10.783,131.254,12.567,131.254,14.403z"/>
			<path fill="#FFB700" d="M153.867,8.255l-5.207,12.296h-3.271l-5.23-12.296h3.296l1.687,4.041l1.885,5.157l1.859-5.109
				l1.688-4.089H153.867z"/>
			<path fill="#FFB700" d="M163.635,8.278h2.898V20.5h-2.848l-0.15-1.782c-0.694,1.436-2.6,2.132-3.967,2.154
				c-3.62,0.026-6.301-2.206-6.301-6.495c0-4.214,2.803-6.42,6.377-6.398c1.633,0,3.195,0.77,3.891,1.985L163.635,8.278z
				 M156.297,14.376c0,2.33,1.609,3.719,3.617,3.719c4.761,0,4.761-7.414,0-7.414C157.906,10.682,156.297,12.046,156.297,14.376z"/>
		</g>
	</g>
	<g>
		<path fill="#FFFFFF" d="M15.3,31.725c0-7.539,6.131-13.67,13.666-13.67h3.796V8.161h-3.796c-12.99,0-23.562,10.572-23.562,23.564
			c0,7.463,3.433,14.328,9.414,18.836l3.039,2.281l5.94-7.912l-3.026-2.283C17.292,40.036,15.3,36.051,15.3,31.725z"/>
		<path fill="#FFB700" d="M43.116,12.892l-3.036-2.285l-5.942,7.912l3.028,2.279c3.477,2.618,5.471,6.601,5.471,10.928
			c0,7.534-6.134,13.666-13.671,13.666h-3.792v9.896h3.792c12.996,0,23.565-10.57,23.565-23.562
			C52.531,24.261,49.101,17.396,43.116,12.892z"/>
	</g>
	<g>
		<path fill="#FFFFFF" d="M87.544,54.598h-6.006l-7.806-8.955h-4.859v8.955h-5.051V27.773c4.243,0,8.491,0.038,12.74,0.038
			c6.315,0.041,9.643,4.25,9.643,8.879c0,3.676-1.679,7.387-6.772,8.418l8.112,9.146L87.544,54.598L87.544,54.598z M68.874,32.518
			v8.572h7.688c3.215,0,4.592-2.143,4.592-4.283c0-2.145-1.416-4.289-4.592-4.289H68.874z"/>
		<path fill="#FFFFFF" d="M109.591,54.598H89.539c0-8.916,0-17.869,0-26.788h20.052v4.897H94.553v6.164h14.503v4.705H94.553v6.049
			h15.039L109.591,54.598L109.591,54.598z"/>
		<path fill="#FFFFFF" d="M130.752,27.773h5.053v26.825h-3.137v0.04l-14.085-18.103v18.062h-5.049V27.811h4.094l13.124,16.609
			V27.773z"/>
		<path fill="#FFFFFF" d="M146.217,32.403h-8.498v-4.592c7.73,0,14.276,0,22.045,0v4.592h-8.498v22.195h-5.049V32.403
			L146.217,32.403z"/>
		<path fill="#FFFFFF" d="M162.1,54.598V27.811h5.01v26.788L162.1,54.598L162.1,54.598z"/>
		<path fill="#FFFFFF" d="M189.842,27.773h5.049v26.825h-3.139v0.04l-14.078-18.103v18.062h-5.051V27.811h4.094l13.125,16.609
			V27.773z"/>
		<path fill="#FFFFFF" d="M219.039,34.357c-1.795-1.724-4.473-2.681-6.809-2.681c-5.74,0-9.224,4.363-9.224,9.873
			c0,4.4,2.562,8.955,9.224,8.955c2.104,0,3.938-0.457,6.045-2.144v-4.745h-6.848v-4.518h11.477v11.29
			c-2.637,3.021-5.969,4.823-10.674,4.823c-10.066,0-14.16-6.619-14.16-13.662c0-7.539,4.707-14.502,14.16-14.502
			c3.598,0,7.192,1.376,9.948,4.094L219.039,34.357z"/>
	</g>
</g>
<g>
	<g>
		<g>
			<path fill="#A4A9AD" d="M73.826,80.538c-1.41,1.383-2.891,1.927-4.692,1.927c-3.539,0-6.479-2.123-6.479-6.446
				c0-4.326,2.94-6.451,6.479-6.451c1.727,0,3.058,0.492,4.395,1.803l-1.906,2.002c-0.714-0.643-1.602-0.963-2.442-0.963
				c-2.025,0-3.509,1.483-3.509,3.609c0,2.321,1.583,3.559,3.463,3.559c0.959,0,1.922-0.275,2.666-1.016L73.826,80.538z"/>
			<path fill="#A4A9AD" d="M84.523,69.913h2.891v12.181h-2.841l-0.146-1.775c-0.694,1.43-2.598,2.125-3.954,2.146
				c-3.61,0.026-6.276-2.198-6.276-6.475c0-4.199,2.79-6.397,6.348-6.376c1.63,0,3.189,0.766,3.883,1.979L84.523,69.913z
				 M77.206,75.99c0,2.324,1.61,3.707,3.61,3.707c4.745,0,4.745-7.388,0-7.388C78.816,72.309,77.206,73.668,77.206,75.99z"/>
			<path fill="#A4A9AD" d="M97.223,73.152c-0.864-0.817-1.85-1.093-3.01-1.093c-1.437,0-2.229,0.448-2.229,1.215
				c0,0.789,0.719,1.232,2.274,1.333c2.301,0.147,5.214,0.666,5.214,3.905c0,2.151-1.753,4.002-5.24,4.002
				c-1.925,0-3.857-0.32-5.631-2.173l1.484-2.153c0.859,0.965,2.839,1.684,4.198,1.707c1.137,0.025,2.198-0.567,2.198-1.457
				c0-0.842-0.69-1.185-2.422-1.287c-2.296-0.168-5.041-1.012-5.041-3.779c0-2.814,2.915-3.805,5.141-3.805
				c1.9,0,3.337,0.371,4.746,1.604L97.223,73.152z"/>
			<path fill="#A4A9AD" d="M110.424,69.913h2.889v12.181h-2.842l-0.147-1.775c-0.694,1.43-2.597,2.125-3.953,2.146
				c-3.609,0.026-6.278-2.198-6.278-6.475c0-4.199,2.792-6.397,6.352-6.376c1.629,0,3.185,0.766,3.879,1.979L110.424,69.913z
				 M103.106,75.99c0,2.324,1.607,3.707,3.606,3.707c4.748,0,4.748-7.388,0-7.388C104.713,72.309,103.106,73.668,103.106,75.99z"/>
		</g>
		<g>
			<path fill="#A4A9AD" d="M124.081,82.093v-6.372c0-1.854-1.014-3.263-2.94-3.263c-1.852,0-3.111,1.558-3.111,3.409v6.226h-2.991
				V69.889h2.695l0.194,1.654c1.236-1.211,2.473-1.827,4.004-1.827c2.864,0,5.166,2.146,5.166,5.978v6.399H124.081z"/>
			<path fill="#A4A9AD" d="M140.955,76.018c0,3.508-2.393,6.351-6.347,6.351c-3.953,0-6.325-2.843-6.325-6.351
				c0-3.485,2.423-6.354,6.302-6.354C138.46,69.665,140.955,72.533,140.955,76.018z M131.294,76.018c0,1.852,1.114,3.58,3.314,3.58
				s3.31-1.729,3.31-3.58c0-1.829-1.282-3.609-3.31-3.609C132.434,72.409,131.294,74.189,131.294,76.018z"/>
			<path fill="#A4A9AD" d="M153.834,69.889l-5.189,12.256h-3.261l-5.216-12.256h3.285l1.682,4.029l1.878,5.139l1.854-5.092
				l1.68-4.076H153.834z"/>
			<path fill="#A4A9AD" d="M163.57,69.913h2.889v12.181h-2.839l-0.149-1.775c-0.692,1.43-2.592,2.125-3.954,2.146
				c-3.608,0.026-6.279-2.198-6.279-6.475c0-4.199,2.793-6.397,6.355-6.376c1.628,0,3.186,0.766,3.878,1.979L163.57,69.913z
				 M156.255,75.99c0,2.324,1.604,3.707,3.606,3.707c4.745,0,4.745-7.388,0-7.388C157.859,72.309,156.255,73.668,156.255,75.99z"/>
		</g>
	</g>
	<g>
		<path fill="#004876" d="M15.715,93.284c0-7.516,6.111-13.625,13.621-13.625h3.784v-9.863h-3.784
			c-12.948,0-23.485,10.537-23.485,23.488c0,7.437,3.422,14.282,9.383,18.774l3.029,2.275l5.922-7.89l-3.017-2.272
			C17.7,101.566,15.715,97.596,15.715,93.284z"/>
		<path fill="#FFB700" d="M43.44,74.511l-3.026-2.276l-5.923,7.885l3.018,2.272c3.465,2.607,5.453,6.579,5.453,10.892
			c0,7.51-6.114,13.621-13.626,13.621h-3.779v9.865h3.779c12.954,0,23.49-10.537,23.49-23.486C52.826,85.842,49.406,79,43.44,74.511
			z"/>
	</g>
	<g>
		<path fill="#004876" d="M87.726,116.081h-5.987l-7.78-8.924h-4.843v8.924H64.08V89.344c4.229,0,8.464,0.037,12.699,0.037
			c6.294,0.04,9.611,4.235,9.611,8.851c0,3.664-1.673,7.362-6.75,8.392l8.085,9.116V116.081z M69.115,94.074v8.544h7.664
			c3.205,0,4.578-2.136,4.578-4.268c0-2.139-1.412-4.276-4.578-4.276H69.115z"/>
		<path fill="#004876" d="M109.701,116.081H89.713c0-8.886,0-17.81,0-26.699h19.988v4.882h-14.99v6.144h14.456v4.69H94.711v6.028
			h14.99V116.081z"/>
		<path fill="#004876" d="M130.793,89.344h5.036v26.736h-3.126v0.041l-14.039-18.043v18.002h-5.033V89.381h4.08l13.082,16.557
			V89.344z"/>
		<path fill="#004876" d="M146.208,93.958h-8.471v-4.577c7.705,0,14.23,0,21.973,0v4.577h-8.47v22.122h-5.032V93.958z"/>
		<path fill="#004876" d="M162.04,116.081V89.381h4.994v26.699H162.04z"/>
		<path fill="#004876" d="M189.692,89.344h5.032v26.736h-3.128v0.041l-14.033-18.043v18.002h-5.034V89.381h4.081l13.082,16.557
			V89.344z"/>
		<path fill="#004876" d="M218.795,95.907c-1.788-1.718-4.459-2.672-6.785-2.672c-5.723,0-9.193,4.349-9.193,9.84
			c0,4.387,2.555,8.928,9.193,8.928c2.099,0,3.926-0.456,6.025-2.138v-4.729h-6.826v-4.503h11.44v11.252
			c-2.629,3.012-5.952,4.808-10.64,4.808c-10.035,0-14.114-6.598-14.114-13.618c0-7.514,4.691-14.453,14.114-14.453
			c3.586,0,7.169,1.371,9.916,4.08L218.795,95.907z"/>
	</g>
</g>
<g>
	<g>
		<g>
			<path fill="#FFFFFF" d="M73.826,142.088c-1.41,1.385-2.892,1.927-4.692,1.927c-3.539,0-6.479-2.123-6.479-6.446
				c0-4.326,2.94-6.451,6.479-6.451c1.727,0,3.059,0.495,4.395,1.803l-1.905,2.002c-0.714-0.643-1.603-0.963-2.443-0.963
				c-2.025,0-3.509,1.483-3.509,3.609c0,2.321,1.583,3.559,3.463,3.559c0.959,0,1.922-0.275,2.666-1.016L73.826,142.088z"/>
			<path fill="#FFFFFF" d="M84.523,131.463h2.891v12.181h-2.841l-0.146-1.775c-0.694,1.43-2.597,2.125-3.954,2.146
				c-3.61,0.026-6.276-2.198-6.276-6.475c0-4.199,2.79-6.397,6.348-6.376c1.63,0,3.189,0.768,3.883,1.979L84.523,131.463z
				 M77.206,137.541c0,2.324,1.61,3.709,3.61,3.709c4.746,0,4.746-7.39,0-7.39C78.816,133.86,77.206,135.219,77.206,137.541z"/>
			<path fill="#FFFFFF" d="M97.224,134.703c-0.865-0.815-1.85-1.091-3.011-1.091c-1.438,0-2.229,0.446-2.229,1.211
				c0,0.791,0.72,1.236,2.275,1.335c2.298,0.149,5.213,0.666,5.213,3.905c0,2.148-1.752,4.002-5.24,4.002
				c-1.925,0-3.857-0.32-5.631-2.173l1.485-2.153c0.858,0.965,2.838,1.684,4.198,1.707c1.136,0.025,2.198-0.567,2.198-1.457
				c0-0.842-0.691-1.185-2.422-1.287c-2.297-0.168-5.042-1.014-5.042-3.779c0-2.814,2.916-3.805,5.142-3.805
				c1.899,0,3.337,0.371,4.745,1.604L97.224,134.703z"/>
			<path fill="#FFFFFF" d="M110.425,131.463h2.89v12.181h-2.843l-0.147-1.775c-0.695,1.43-2.597,2.125-3.954,2.146
				c-3.609,0.026-6.278-2.198-6.278-6.475c0-4.199,2.793-6.397,6.353-6.376c1.628,0,3.184,0.768,3.879,1.979L110.425,131.463z
				 M103.106,137.541c0,2.324,1.607,3.709,3.606,3.709c4.749,0,4.749-7.39,0-7.39C104.713,133.86,103.106,135.219,103.106,137.541z"
				/>
		</g>
		<g>
			<path fill="#FFFFFF" d="M124.082,143.644v-6.372c0-1.854-1.015-3.266-2.94-3.266c-1.853,0-3.112,1.561-3.112,3.41v6.228h-2.991
				V131.44h2.695l0.194,1.654c1.238-1.211,2.474-1.827,4.004-1.827c2.865,0,5.166,2.146,5.166,5.978v6.399H124.082z"/>
			<path fill="#FFFFFF" d="M140.955,137.569c0,3.508-2.392,6.351-6.347,6.351c-3.953,0-6.324-2.843-6.324-6.351
				c0-3.485,2.422-6.354,6.301-6.354C138.461,131.215,140.955,134.083,140.955,137.569z M131.294,137.569
				c0,1.852,1.114,3.58,3.314,3.58c2.198,0,3.311-1.729,3.311-3.58c0-1.831-1.282-3.609-3.311-3.609
				C132.434,133.959,131.294,135.738,131.294,137.569z"/>
			<path fill="#FFFFFF" d="M153.834,131.44l-5.189,12.258h-3.261l-5.216-12.258h3.286l1.681,4.026l1.879,5.142l1.853-5.092
				l1.682-4.076H153.834z"/>
			<path fill="#FFFFFF" d="M163.571,131.463h2.888v12.181h-2.839l-0.149-1.775c-0.691,1.43-2.592,2.125-3.954,2.146
				c-3.608,0.026-6.279-2.198-6.279-6.475c0-4.199,2.793-6.397,6.356-6.376c1.628,0,3.186,0.768,3.877,1.979L163.571,131.463z
				 M156.256,137.541c0,2.324,1.605,3.709,3.605,3.709c4.745,0,4.745-7.39,0-7.39C157.861,133.86,156.256,135.219,156.256,137.541z"
				/>
		</g>
	</g>
	<g>
		<path fill="#004876" d="M15.715,154.834c0-7.516,6.111-13.625,13.621-13.625h3.784v-9.863h-3.784
			c-12.948,0-23.485,10.537-23.485,23.488c0,7.439,3.422,14.28,9.383,18.774l3.029,2.275l5.922-7.888l-3.017-2.276
			C17.701,163.117,15.715,159.147,15.715,154.834z"/>
		<path fill="#FFFFFF" d="M43.44,136.062l-3.026-2.276l-5.923,7.885l3.019,2.272c3.465,2.607,5.452,6.579,5.452,10.892
			c0,7.51-6.114,13.621-13.626,13.621h-3.779v9.865h3.779c12.954,0,23.49-10.537,23.49-23.486
			C52.826,147.393,49.406,140.551,43.44,136.062z"/>
	</g>
	<g>
		<path fill="#004876" d="M87.726,177.634h-5.987l-7.78-8.927h-4.843v8.927H64.08v-26.739c4.229,0,8.463,0.039,12.698,0.039
			c6.294,0.038,9.613,4.235,9.613,8.849c0,3.664-1.674,7.362-6.751,8.392l8.085,9.116V177.634z M69.115,155.625v8.544h7.663
			c3.205,0,4.578-2.134,4.578-4.268c0-2.139-1.412-4.276-4.578-4.276H69.115z"/>
		<path fill="#004876" d="M109.701,177.634H89.715c0-8.889,0-17.812,0-26.7h19.986v4.88h-14.99v6.144h14.457v4.69H94.711v6.028
			h14.99V177.634z"/>
		<path fill="#004876" d="M130.794,150.895h5.036v26.739h-3.127v0.038l-14.039-18.043v18.005h-5.033v-26.7h4.081l13.082,16.555
			V150.895z"/>
		<path fill="#004876" d="M146.208,155.509h-8.471v-4.575c7.706,0,14.231,0,21.974,0v4.575h-8.47v22.125h-5.033V155.509z"/>
		<path fill="#004876" d="M162.04,177.634v-26.7h4.995v26.7H162.04z"/>
		<path fill="#004876" d="M189.693,150.895h5.031v26.739h-3.128v0.038l-14.033-18.043v18.005h-5.034v-26.7h4.081l13.083,16.555
			V150.895z"/>
		<path fill="#004876" d="M218.797,157.458c-1.79-1.718-4.461-2.672-6.787-2.672c-5.723,0-9.193,4.349-9.193,9.842
			c0,4.385,2.555,8.926,9.193,8.926c2.099,0,3.928-0.456,6.025-2.138v-4.729h-6.825v-4.503h11.439v11.252
			c-2.629,3.012-5.95,4.808-10.64,4.808c-10.035,0-14.114-6.598-14.114-13.616c0-7.516,4.691-14.455,14.114-14.455
			c3.586,0,7.169,1.371,9.916,4.08L218.797,157.458z"/>
	</g>
</g>
</svg>
